<svg width="38" height="28" viewBox="0 0 38 28" fill="none" xmlns="http://www.w3.org/2000/svg">
<path d="M37.375 23.625C37.375 25.5579 35.8079 27.125 33.875 27.125H4.125C2.19212 27.125 0.625 25.5579 0.625 23.625V4.375C0.625 2.44212 2.19212 0.875 4.125 0.875H33.875C35.8079 0.875 37.375 2.44212 37.375 4.375V23.625Z" fill="#1976D2"/>
<path d="M17.4731 10.5L15.6242 14.5976L13.7841 10.5H11.426V16.3852L8.79837 10.5H6.80862L4.125 16.6084H5.71312L6.30025 15.2451H9.30325L9.9 16.6084H12.9319V12.0715L14.9435 16.6084H16.3111L18.3682 12.1502V16.6084H19.875V10.5H17.4731ZM6.86812 13.9256L7.76587 11.7906L8.69862 13.9256H6.86812ZM31.1476 13.4864L33.875 10.5157H31.9351L30.1904 12.4092L28.5025 10.5H22.5V16.6092H28.3056L30.1361 14.5871L31.9211 16.625H33.8549L31.1476 13.4864ZM27.512 15.3265H24.0024V14.1181H27.3606V12.9605H24.0024V11.816L27.7071 11.8265L29.1885 13.4864L27.512 15.3265Z" fill="white"/>
</svg>
