<svg width="39" height="28" viewBox="0 0 39 28" fill="none" xmlns="http://www.w3.org/2000/svg">
<path d="M38.3125 23.625C38.3125 25.5579 36.7081 27.125 34.7292 27.125H4.27083C2.29194 27.125 0.6875 25.5579 0.6875 23.625V4.375C0.6875 2.44212 2.29194 0.875 4.27083 0.875H34.7292C36.7081 0.875 38.3125 2.44212 38.3125 4.375V23.625Z" fill="white"/>
<path d="M24.875 5.25C22.4991 5.25 20.2205 6.17187 18.5405 7.81281C16.8605 9.45376 15.9167 11.6794 15.9167 14C15.9167 16.3206 16.8605 18.5462 18.5405 20.1872C20.2205 21.8281 22.4991 22.75 24.875 22.75C27.2509 22.75 29.5295 21.8281 31.2095 20.1872C32.8895 18.5462 33.8333 16.3206 33.8333 14C33.8333 11.6794 32.8895 9.45376 31.2095 7.81281C29.5295 6.17187 27.2509 5.25 24.875 5.25Z" fill="#FFC107"/>
<path d="M17.7209 19.25C17.3052 18.7101 16.9478 18.1265 16.6674 17.5H21.4377C21.6867 16.9435 21.882 16.359 22.0083 15.75H16.0976C15.9794 15.1847 15.9167 14.6002 15.9167 14H22.1875C22.1875 13.3997 22.1248 12.8152 22.0074 12.25H16.0967C16.2239 11.641 16.4183 11.0565 16.6674 10.5H21.4377C21.1573 9.8735 20.8008 9.28987 20.3842 8.75H17.7209C18.1124 8.2425 18.554 7.76825 19.0476 7.35437C17.4817 6.04537 15.4517 5.25 13.2292 5.25C8.28148 5.25 4.27083 9.16737 4.27083 14C4.27083 18.8326 8.28148 22.75 13.2292 22.75C16.1576 22.75 18.7493 21.3719 20.3833 19.25H17.7209Z" fill="#FF3D00"/>
</svg>
