<svg width="39" height="28" viewBox="0 0 39 28" fill="none" xmlns="http://www.w3.org/2000/svg">
<path d="M38.3125 23.625C38.3125 25.5579 36.7081 27.125 34.7292 27.125H4.27083C2.29194 27.125 0.6875 25.5579 0.6875 23.625V4.375C0.6875 2.44212 2.29194 0.875 4.27083 0.875H34.7292C36.7081 0.875 38.3125 2.44212 38.3125 4.375V23.625Z" fill="#1565C0"/>
<path d="M11.6041 9.625L9.25167 16.478C9.25167 16.478 8.65415 13.5791 8.59502 13.2151C7.25575 10.2305 5.27954 10.3967 5.27954 10.3967L7.60871 19.25V19.2482H10.4404L14.3561 9.625H11.6041ZM13.8464 19.25H16.4183L17.9735 9.625H15.3693L13.8464 19.25ZM32.0488 9.625H29.3425L25.1231 19.25H27.6781L28.2048 17.8754H31.4262L31.7004 19.25H34.0412L32.0488 9.625ZM28.9179 16.037L30.3181 12.3996L31.0509 16.037H28.9179ZM21.6222 12.4302C21.6222 11.9 22.0684 11.5054 23.3476 11.5054C24.1789 11.5054 25.1312 12.0951 25.1312 12.0951L25.5487 10.0747C25.5487 10.0747 24.3321 9.62413 23.138 9.62413C20.4335 9.62413 19.0386 10.8876 19.0386 12.4871C19.0386 15.3799 22.6032 14.9835 22.6032 16.4693C22.6032 16.7239 22.3962 17.3127 20.9118 17.3127C19.423 17.3127 18.4402 16.7799 18.4402 16.7799L17.9968 18.7189C17.9968 18.7189 18.9491 19.2491 20.7891 19.2491C22.6336 19.2491 25.1921 17.9016 25.1921 15.9661C25.1921 13.6377 21.6222 13.4697 21.6222 12.4302Z" fill="white"/>
<path d="M8.93992 14.8269L8.07454 10.6724C8.07454 10.6724 7.68306 9.772 6.6654 9.772C5.64773 9.772 2.68789 9.772 2.68789 9.772C2.68789 9.772 7.75921 11.235 8.93992 14.8269Z" fill="#FFC107"/>
</svg>
