<svg xmlns="http://www.w3.org/2000/svg" xmlns:xlink="http://www.w3.org/1999/xlink" width="500" zoomAndPan="magnify" viewBox="0 0 375 149.999998" height="200" preserveAspectRatio="xMidYMid meet" version="1.0"><defs><g/><clipPath id="e2e638d399"><path d="M 52 26 L 124.574219 26 L 124.574219 130.703125 L 52 130.703125 Z M 52 26 " clip-rule="nonzero"/></clipPath><clipPath id="e5b0e204f0"><path d="M 12.824219 18.953125 L 86 18.953125 L 86 122 L 12.824219 122 Z M 12.824219 18.953125 " clip-rule="nonzero"/></clipPath></defs><g clip-path="url(#e2e638d399)"><path fill="#ff6f00" d="M 76.097656 67.800781 C 74.601562 67.066406 73.984375 65.253906 74.71875 63.765625 L 88.679688 35.597656 L 94.113281 38.261719 L 80.152344 66.429688 C 79.414062 67.917969 77.589844 68.53125 76.097656 67.800781 Z M 93.082031 26.128906 L 93.167969 26.195312 C 116.644531 38.964844 126.03125 67.996094 114.089844 92.09375 C 110.589844 99.15625 105.632812 105.035156 99.757812 109.542969 C 89.859375 117.140625 77.351562 120.847656 64.808594 119.796875 L 79.949219 89.242188 C 82.210938 84.847656 83.203125 84.117188 87.453125 82.34375 C 91.910156 80.480469 93.441406 80.097656 95.828125 75.984375 C 100.382812 68.109375 105.292969 53.683594 108.367188 45.203125 L 104.703125 43.5 C 100.832031 51.933594 98.839844 56.945312 94.789062 64.832031 C 85.457031 82.996094 84.09375 73.792969 77.289062 80.621094 C 76.503906 81.410156 73.585938 86.613281 70.113281 93.152344 L 54.003906 125.652344 L 52.539062 128.609375 C 67.886719 132.882812 84.949219 130.714844 99.242188 121.210938 C 109 114.726562 116.074219 105.746094 120.1875 95.6875 C 119.972656 96.1875 119.75 96.679688 119.523438 97.175781 C 131.714844 70.917969 120.6875 39.632812 94.453125 26.773438 C 93.996094 26.546875 93.539062 26.335938 93.082031 26.125 Z M 83.863281 71.609375 C 82.371094 70.875 81.75 69.058594 82.488281 67.574219 L 96.449219 39.402344 L 101.882812 42.066406 L 87.921875 70.234375 C 87.183594 71.722656 85.359375 72.335938 83.863281 71.605469 Z M 83.863281 71.609375 " fill-opacity="1" fill-rule="evenodd"/></g><g clip-path="url(#e5b0e204f0)"><path fill="#4caf50" d="M 15.804688 69.847656 L 16.753906 68.628906 C 17.445312 67.539062 17.121094 68.195312 17.78125 66.859375 L 21.644531 58.9375 C 26.367188 50.566406 37.796875 35.941406 50.992188 31.953125 C 42.019531 38.332031 28.910156 47.328125 20.339844 70.75 C 12.597656 91.886719 17.746094 108.035156 28.203125 115.695312 C 37.890625 122.792969 50.355469 124.542969 55.277344 115.019531 C 59.117188 107.585938 63.273438 99.542969 67.292969 91.765625 C 70.390625 85.042969 72.761719 79.574219 72.914062 78.472656 C 74.214844 68.949219 66.046875 73.476562 74.847656 55.054688 C 78.671875 47.054688 81.453125 42.429688 85.820312 34.238281 L 82.230469 32.390625 C 77.339844 39.976562 68.824219 52.640625 65.324219 61.027344 C 63.492188 65.417969 64.121094 66.855469 65.351562 71.507812 C 66.523438 75.941406 66.542969 77.164062 64.417969 81.625 L 52.40625 104.902344 C 46.804688 115.761719 35.839844 112.875 28.765625 104.832031 C 23.085938 98.378906 20.800781 88.183594 24.289062 77.222656 C 30.261719 73.914062 37.949219 74.53125 46.351562 69.050781 C 60.445312 59.859375 62.804688 33.960938 78.957031 22.878906 C 60.929688 9.167969 -1.09375 32.925781 15.804688 69.847656 Z M 15.804688 69.847656 " fill-opacity="1" fill-rule="evenodd"/></g><g fill="#393838" fill-opacity="1"><g transform="translate(134.526018, 70.414566)"><g><path d="M 14.609375 0.375 C 12.222656 0.375 10.125 -0.0859375 8.3125 -1.015625 C 6.507812 -1.941406 5.101562 -3.25 4.09375 -4.9375 C 3.09375 -6.625 2.59375 -8.566406 2.59375 -10.765625 L 2.59375 -31.671875 C 2.59375 -32.203125 2.859375 -32.46875 3.390625 -32.46875 L 8.34375 -32.46875 C 8.875 -32.46875 9.140625 -32.203125 9.140625 -31.671875 L 9.140625 -10.71875 C 9.140625 -9.070312 9.640625 -7.742188 10.640625 -6.734375 C 11.648438 -5.734375 12.972656 -5.234375 14.609375 -5.234375 C 16.242188 -5.234375 17.5625 -5.734375 18.5625 -6.734375 C 19.570312 -7.742188 20.078125 -9.070312 20.078125 -10.71875 L 20.078125 -31.671875 C 20.078125 -32.203125 20.34375 -32.46875 20.875 -32.46875 L 25.828125 -32.46875 C 26.359375 -32.46875 26.625 -32.203125 26.625 -31.671875 L 26.625 -10.765625 C 26.625 -8.566406 26.117188 -6.625 25.109375 -4.9375 C 24.109375 -3.25 22.703125 -1.941406 20.890625 -1.015625 C 19.078125 -0.0859375 16.984375 0.375 14.609375 0.375 Z M 14.609375 0.375 "/></g></g></g><g fill="#393838" fill-opacity="1"><g transform="translate(163.695504, 70.414566)"><g><path d="M 14.28125 -24.15625 C 15.269531 -24.15625 16.085938 -23.972656 16.734375 -23.609375 C 17.109375 -23.421875 17.25 -23.09375 17.15625 -22.625 L 16.28125 -17.765625 C 16.25 -17.484375 16.160156 -17.3125 16.015625 -17.25 C 15.878906 -17.1875 15.65625 -17.1875 15.34375 -17.25 C 14.851562 -17.375 14.40625 -17.4375 14 -17.4375 C 13.789062 -17.4375 13.4375 -17.40625 12.9375 -17.34375 C 11.820312 -17.25 10.878906 -16.835938 10.109375 -16.109375 C 9.335938 -15.390625 8.953125 -14.425781 8.953125 -13.21875 L 8.953125 -0.78125 C 8.953125 -0.257812 8.6875 0 8.15625 0 L 3.203125 0 C 2.671875 0 2.40625 -0.257812 2.40625 -0.78125 L 2.40625 -23.046875 C 2.40625 -23.578125 2.671875 -23.84375 3.203125 -23.84375 L 8.15625 -23.84375 C 8.6875 -23.84375 8.953125 -23.578125 8.953125 -23.046875 L 8.953125 -21.609375 C 8.953125 -21.484375 8.984375 -21.40625 9.046875 -21.375 C 9.109375 -21.34375 9.1875 -21.375 9.28125 -21.46875 C 10.507812 -23.257812 12.175781 -24.15625 14.28125 -24.15625 Z M 14.28125 -24.15625 "/></g></g></g><g fill="#393838" fill-opacity="1"><g transform="translate(181.456888, 70.414566)"><g><path d="M 23.515625 -17.765625 C 24.097656 -16.210938 24.390625 -14.296875 24.390625 -12.015625 C 24.390625 -9.785156 24.128906 -7.929688 23.609375 -6.453125 C 22.984375 -4.410156 21.859375 -2.757812 20.234375 -1.5 C 18.617188 -0.25 16.757812 0.375 14.65625 0.375 C 12.394531 0.375 10.632812 -0.460938 9.375 -2.140625 C 9.3125 -2.222656 9.238281 -2.253906 9.15625 -2.234375 C 9.082031 -2.222656 9.046875 -2.160156 9.046875 -2.046875 L 9.046875 -0.78125 C 9.046875 -0.257812 8.78125 0 8.25 0 L 3.296875 0 C 2.765625 0 2.5 -0.257812 2.5 -0.78125 L 2.5 -31.671875 C 2.5 -32.203125 2.765625 -32.46875 3.296875 -32.46875 L 8.25 -32.46875 C 8.78125 -32.46875 9.046875 -32.203125 9.046875 -31.671875 L 9.046875 -22.125 C 9.046875 -22 9.082031 -21.921875 9.15625 -21.890625 C 9.238281 -21.859375 9.3125 -21.890625 9.375 -21.984375 C 10.601562 -23.492188 12.363281 -24.25 14.65625 -24.25 C 16.757812 -24.25 18.585938 -23.660156 20.140625 -22.484375 C 21.703125 -21.316406 22.828125 -19.742188 23.515625 -17.765625 Z M 16.5625 -7.328125 C 17.207031 -8.535156 17.53125 -10.050781 17.53125 -11.875 C 17.53125 -13.882812 17.160156 -15.503906 16.421875 -16.734375 C 15.671875 -17.910156 14.585938 -18.5 13.171875 -18.5 C 11.867188 -18.5 10.832031 -17.894531 10.0625 -16.6875 C 9.414062 -15.550781 9.09375 -13.960938 9.09375 -11.921875 C 9.09375 -10.003906 9.398438 -8.472656 10.015625 -7.328125 C 10.753906 -5.992188 11.804688 -5.328125 13.171875 -5.328125 C 14.679688 -5.328125 15.8125 -5.992188 16.5625 -7.328125 Z M 16.5625 -7.328125 "/></g></g></g><g fill="#393838" fill-opacity="1"><g transform="translate(207.287418, 70.414566)"><g><path d="M 11.96875 -24.203125 C 13.976562 -24.203125 15.769531 -23.851562 17.34375 -23.15625 C 18.914062 -22.46875 20.144531 -21.519531 21.03125 -20.3125 C 21.914062 -19.101562 22.359375 -17.757812 22.359375 -16.28125 L 22.359375 -0.78125 C 22.359375 -0.257812 22.09375 0 21.5625 0 L 16.609375 0 C 16.078125 0 15.8125 -0.257812 15.8125 -0.78125 L 15.8125 -1.90625 C 15.8125 -2.03125 15.78125 -2.097656 15.71875 -2.109375 C 15.65625 -2.128906 15.578125 -2.09375 15.484375 -2 C 14.066406 -0.414062 11.953125 0.375 9.140625 0.375 C 6.753906 0.375 4.832031 -0.210938 3.375 -1.390625 C 1.925781 -2.566406 1.203125 -4.296875 1.203125 -6.578125 C 1.203125 -8.960938 2.035156 -10.8125 3.703125 -12.125 C 5.378906 -13.4375 7.765625 -14.09375 10.859375 -14.09375 L 15.53125 -14.09375 C 15.71875 -14.09375 15.8125 -14.1875 15.8125 -14.375 L 15.8125 -15.34375 C 15.8125 -16.363281 15.492188 -17.160156 14.859375 -17.734375 C 14.222656 -18.304688 13.304688 -18.59375 12.109375 -18.59375 C 11.179688 -18.59375 10.414062 -18.4375 9.8125 -18.125 C 9.207031 -17.820312 8.796875 -17.390625 8.578125 -16.828125 C 8.390625 -16.398438 8.082031 -16.203125 7.65625 -16.234375 L 2.5 -16.875 C 2.257812 -16.90625 2.066406 -16.972656 1.921875 -17.078125 C 1.785156 -17.191406 1.734375 -17.34375 1.765625 -17.53125 C 1.921875 -18.800781 2.453125 -19.941406 3.359375 -20.953125 C 4.273438 -21.972656 5.484375 -22.769531 6.984375 -23.34375 C 8.484375 -23.914062 10.144531 -24.203125 11.96875 -24.203125 Z M 11.03125 -4.5 C 12.363281 -4.5 13.492188 -4.851562 14.421875 -5.5625 C 15.347656 -6.269531 15.8125 -7.179688 15.8125 -8.296875 L 15.8125 -9.921875 C 15.8125 -10.109375 15.71875 -10.203125 15.53125 -10.203125 L 12.25 -10.203125 C 10.851562 -10.203125 9.753906 -9.9375 8.953125 -9.40625 C 8.148438 -8.882812 7.75 -8.144531 7.75 -7.1875 C 7.75 -6.351562 8.046875 -5.695312 8.640625 -5.21875 C 9.242188 -4.738281 10.039062 -4.5 11.03125 -4.5 Z M 11.03125 -4.5 "/></g></g></g><g fill="#393838" fill-opacity="1"><g transform="translate(231.773093, 70.414566)"><g><path d="M 14.84375 -24.203125 C 17.3125 -24.203125 19.300781 -23.441406 20.8125 -21.921875 C 22.332031 -20.410156 23.09375 -18.359375 23.09375 -15.765625 L 23.09375 -0.78125 C 23.09375 -0.257812 22.832031 0 22.3125 0 L 17.34375 0 C 16.820312 0 16.5625 -0.257812 16.5625 -0.78125 L 16.5625 -14.421875 C 16.5625 -15.660156 16.21875 -16.664062 15.53125 -17.4375 C 14.851562 -18.207031 13.941406 -18.59375 12.796875 -18.59375 C 11.648438 -18.59375 10.722656 -18.207031 10.015625 -17.4375 C 9.304688 -16.664062 8.953125 -15.660156 8.953125 -14.421875 L 8.953125 -0.78125 C 8.953125 -0.257812 8.6875 0 8.15625 0 L 3.203125 0 C 2.671875 0 2.40625 -0.257812 2.40625 -0.78125 L 2.40625 -23.046875 C 2.40625 -23.578125 2.671875 -23.84375 3.203125 -23.84375 L 8.15625 -23.84375 C 8.6875 -23.84375 8.953125 -23.578125 8.953125 -23.046875 L 8.953125 -21.75 C 8.953125 -21.625 8.984375 -21.546875 9.046875 -21.515625 C 9.109375 -21.484375 9.171875 -21.515625 9.234375 -21.609375 C 10.492188 -23.335938 12.363281 -24.203125 14.84375 -24.203125 Z M 14.84375 -24.203125 "/></g></g></g><g fill="#393838" fill-opacity="1"><g transform="translate(257.139882, 70.414566)"><g/></g></g><g fill="#ff6f00" fill-opacity="1"><g transform="translate(266.404502, 70.414566)"><g><path d="M 25.359375 -27.640625 C 25.359375 -27.109375 25.097656 -26.84375 24.578125 -26.84375 L 9.640625 -26.84375 C 9.460938 -26.84375 9.375 -26.753906 9.375 -26.578125 L 9.375 -19.484375 C 9.375 -19.296875 9.460938 -19.203125 9.640625 -19.203125 L 19.34375 -19.203125 C 19.863281 -19.203125 20.125 -18.9375 20.125 -18.40625 L 20.125 -14.375 C 20.125 -13.851562 19.863281 -13.59375 19.34375 -13.59375 L 9.640625 -13.59375 C 9.460938 -13.59375 9.375 -13.5 9.375 -13.3125 L 9.375 -5.890625 C 9.375 -5.703125 9.460938 -5.609375 9.640625 -5.609375 L 24.578125 -5.609375 C 25.097656 -5.609375 25.359375 -5.347656 25.359375 -4.828125 L 25.359375 -0.78125 C 25.359375 -0.257812 25.097656 0 24.578125 0 L 3.625 0 C 3.09375 0 2.828125 -0.257812 2.828125 -0.78125 L 2.828125 -31.671875 C 2.828125 -32.203125 3.09375 -32.46875 3.625 -32.46875 L 24.578125 -32.46875 C 25.097656 -32.46875 25.359375 -32.203125 25.359375 -31.671875 Z M 25.359375 -27.640625 "/></g></g></g><g fill="#ff6f00" fill-opacity="1"><g transform="translate(293.487142, 70.414566)"><g><path d="M 11.96875 -24.203125 C 13.976562 -24.203125 15.769531 -23.851562 17.34375 -23.15625 C 18.914062 -22.46875 20.144531 -21.519531 21.03125 -20.3125 C 21.914062 -19.101562 22.359375 -17.757812 22.359375 -16.28125 L 22.359375 -0.78125 C 22.359375 -0.257812 22.09375 0 21.5625 0 L 16.609375 0 C 16.078125 0 15.8125 -0.257812 15.8125 -0.78125 L 15.8125 -1.90625 C 15.8125 -2.03125 15.78125 -2.097656 15.71875 -2.109375 C 15.65625 -2.128906 15.578125 -2.09375 15.484375 -2 C 14.066406 -0.414062 11.953125 0.375 9.140625 0.375 C 6.753906 0.375 4.832031 -0.210938 3.375 -1.390625 C 1.925781 -2.566406 1.203125 -4.296875 1.203125 -6.578125 C 1.203125 -8.960938 2.035156 -10.8125 3.703125 -12.125 C 5.378906 -13.4375 7.765625 -14.09375 10.859375 -14.09375 L 15.53125 -14.09375 C 15.71875 -14.09375 15.8125 -14.1875 15.8125 -14.375 L 15.8125 -15.34375 C 15.8125 -16.363281 15.492188 -17.160156 14.859375 -17.734375 C 14.222656 -18.304688 13.304688 -18.59375 12.109375 -18.59375 C 11.179688 -18.59375 10.414062 -18.4375 9.8125 -18.125 C 9.207031 -17.820312 8.796875 -17.390625 8.578125 -16.828125 C 8.390625 -16.398438 8.082031 -16.203125 7.65625 -16.234375 L 2.5 -16.875 C 2.257812 -16.90625 2.066406 -16.972656 1.921875 -17.078125 C 1.785156 -17.191406 1.734375 -17.34375 1.765625 -17.53125 C 1.921875 -18.800781 2.453125 -19.941406 3.359375 -20.953125 C 4.273438 -21.972656 5.484375 -22.769531 6.984375 -23.34375 C 8.484375 -23.914062 10.144531 -24.203125 11.96875 -24.203125 Z M 11.03125 -4.5 C 12.363281 -4.5 13.492188 -4.851562 14.421875 -5.5625 C 15.347656 -6.269531 15.8125 -7.179688 15.8125 -8.296875 L 15.8125 -9.921875 C 15.8125 -10.109375 15.71875 -10.203125 15.53125 -10.203125 L 12.25 -10.203125 C 10.851562 -10.203125 9.753906 -9.9375 8.953125 -9.40625 C 8.148438 -8.882812 7.75 -8.144531 7.75 -7.1875 C 7.75 -6.351562 8.046875 -5.695312 8.640625 -5.21875 C 9.242188 -4.738281 10.039062 -4.5 11.03125 -4.5 Z M 11.03125 -4.5 "/></g></g></g><g fill="#ff6f00" fill-opacity="1"><g transform="translate(317.972816, 70.414566)"><g><path d="M 16.09375 -19.390625 C 16.09375 -18.859375 15.828125 -18.59375 15.296875 -18.59375 L 11.125 -18.59375 C 10.945312 -18.59375 10.859375 -18.5 10.859375 -18.3125 L 10.859375 -8.71875 C 10.859375 -7.695312 11.066406 -6.945312 11.484375 -6.46875 C 11.898438 -5.988281 12.570312 -5.75 13.5 -5.75 L 14.796875 -5.75 C 15.316406 -5.75 15.578125 -5.488281 15.578125 -4.96875 L 15.578125 -0.96875 C 15.578125 -0.476562 15.316406 -0.203125 14.796875 -0.140625 C 13.617188 -0.078125 12.769531 -0.046875 12.25 -0.046875 C 9.675781 -0.046875 7.753906 -0.476562 6.484375 -1.34375 C 5.222656 -2.207031 4.578125 -3.816406 4.546875 -6.171875 L 4.546875 -18.3125 C 4.546875 -18.5 4.453125 -18.59375 4.265625 -18.59375 L 1.90625 -18.59375 C 1.375 -18.59375 1.109375 -18.859375 1.109375 -19.390625 L 1.109375 -23.046875 C 1.109375 -23.578125 1.375 -23.84375 1.90625 -23.84375 L 4.265625 -23.84375 C 4.453125 -23.84375 4.546875 -23.929688 4.546875 -24.109375 L 4.546875 -29.359375 C 4.546875 -29.878906 4.804688 -30.140625 5.328125 -30.140625 L 10.0625 -30.140625 C 10.59375 -30.140625 10.859375 -29.878906 10.859375 -29.359375 L 10.859375 -24.109375 C 10.859375 -23.929688 10.945312 -23.84375 11.125 -23.84375 L 15.296875 -23.84375 C 15.828125 -23.84375 16.09375 -23.578125 16.09375 -23.046875 Z M 16.09375 -19.390625 "/></g></g></g><g fill="#ff6f00" fill-opacity="1"><g transform="translate(335.595088, 70.414566)"><g><path d="M 11.921875 0.328125 C 9.847656 0.328125 8.035156 0.0351562 6.484375 -0.546875 C 4.941406 -1.140625 3.753906 -1.960938 2.921875 -3.015625 C 2.085938 -4.066406 1.671875 -5.253906 1.671875 -6.578125 L 1.671875 -6.8125 C 1.671875 -7.34375 1.929688 -7.609375 2.453125 -7.609375 L 7.140625 -7.609375 C 7.671875 -7.609375 7.9375 -7.515625 7.9375 -7.328125 L 7.9375 -7 C 7.9375 -6.320312 8.304688 -5.742188 9.046875 -5.265625 C 9.785156 -4.785156 10.726562 -4.546875 11.875 -4.546875 C 12.925781 -4.546875 13.773438 -4.742188 14.421875 -5.140625 C 15.066406 -5.546875 15.390625 -6.070312 15.390625 -6.71875 C 15.390625 -7.28125 15.113281 -7.695312 14.5625 -7.96875 C 14.007812 -8.25 13.097656 -8.546875 11.828125 -8.859375 C 10.304688 -9.253906 9.175781 -9.609375 8.4375 -9.921875 C 6.425781 -10.597656 4.832031 -11.429688 3.65625 -12.421875 C 2.488281 -13.410156 1.90625 -14.832031 1.90625 -16.6875 C 1.90625 -18.976562 2.800781 -20.796875 4.59375 -22.140625 C 6.382812 -23.484375 8.734375 -24.15625 11.640625 -24.15625 C 13.617188 -24.15625 15.359375 -23.835938 16.859375 -23.203125 C 18.359375 -22.578125 19.515625 -21.691406 20.328125 -20.546875 C 21.148438 -19.398438 21.5625 -18.101562 21.5625 -16.65625 C 21.5625 -16.5 21.488281 -16.363281 21.34375 -16.25 C 21.207031 -16.144531 21.019531 -16.09375 20.78125 -16.09375 L 16.234375 -16.09375 C 15.703125 -16.09375 15.4375 -16.1875 15.4375 -16.375 L 15.4375 -16.65625 C 15.4375 -17.332031 15.097656 -17.898438 14.421875 -18.359375 C 13.742188 -18.828125 12.832031 -19.0625 11.6875 -19.0625 C 10.664062 -19.0625 9.820312 -18.875 9.15625 -18.5 C 8.488281 -18.132812 8.15625 -17.625 8.15625 -16.96875 C 8.15625 -16.351562 8.472656 -15.890625 9.109375 -15.578125 C 9.742188 -15.273438 10.789062 -14.953125 12.25 -14.609375 C 13.144531 -14.421875 14.007812 -14.1875 14.84375 -13.90625 C 17.0625 -13.257812 18.804688 -12.425781 20.078125 -11.40625 C 21.347656 -10.382812 21.984375 -8.898438 21.984375 -6.953125 C 21.984375 -4.671875 21.070312 -2.882812 19.25 -1.59375 C 17.425781 -0.3125 14.984375 0.328125 11.921875 0.328125 Z M 11.921875 0.328125 "/></g></g></g><g fill="#393838" fill-opacity="1"><g transform="translate(135.651197, 116.161341)"><g><path d="M 12.304688 -11.988281 C 12.082031 -12.269531 12.082031 -12.304688 12.304688 -12.269531 C 12.585938 -12.207031 11.890625 -12.902344 11.605469 -13 C 11.480469 -13.03125 11.386719 -13.09375 11.386719 -13.1875 C 11.355469 -13.25 11.449219 -13.316406 11.574219 -13.285156 C 11.703125 -13.25 11.859375 -13.25 11.890625 -13.316406 C 12.019531 -13.410156 11.449219 -14.105469 11.039062 -14.296875 C 10.660156 -14.515625 8.761719 -14.738281 7.96875 -14.675781 C 7.621094 -14.675781 7.242188 -14.675781 7.019531 -14.675781 C 6.199219 -14.738281 4.777344 -14.769531 4.429688 -14.707031 C 4.207031 -14.707031 3.761719 -14.738281 3.414062 -14.832031 C 2.910156 -14.960938 2.847656 -14.992188 3.066406 -15.085938 C 3.289062 -15.179688 3.289062 -15.179688 3.097656 -15.210938 C 3.003906 -15.242188 2.625 -15.179688 2.277344 -15.054688 C 1.929688 -14.894531 1.582031 -14.800781 1.519531 -14.832031 C 1.453125 -14.863281 1.171875 -14.832031 0.917969 -14.800781 C 0.507812 -14.738281 0.347656 -14.644531 0.285156 -14.421875 C 0.222656 -14.199219 0.222656 -14.136719 0.347656 -14.199219 C 0.441406 -14.261719 0.570312 -14.230469 0.664062 -14.136719 C 0.855469 -13.914062 0.886719 -13.472656 0.695312 -13.597656 C 0.191406 -14.011719 0.125 -14.011719 0.09375 -13.726562 C 0.09375 -13.535156 0.125 -13.25 0.253906 -13.0625 C 0.347656 -12.902344 0.410156 -12.683594 0.378906 -12.617188 C 0.347656 -12.523438 0.410156 -12.367188 0.472656 -12.269531 C 0.570312 -12.144531 0.632812 -11.859375 0.664062 -11.671875 C 0.695312 -11.386719 0.789062 -11.289062 0.917969 -11.324219 C 1.042969 -11.324219 1.453125 -11.257812 1.867188 -11.195312 C 2.6875 -11.039062 3.257812 -10.972656 3.574219 -11.070312 C 3.699219 -11.101562 4.269531 -11.132812 4.839844 -11.132812 C 5.441406 -11.132812 6.230469 -11.132812 6.609375 -11.164062 C 6.988281 -11.164062 7.558594 -11.164062 7.84375 -11.164062 C 8.128906 -11.164062 8.445312 -11.257812 8.507812 -11.324219 C 8.601562 -11.449219 8.664062 -11.449219 8.730469 -11.324219 C 8.792969 -11.195312 8.886719 -11.195312 9.078125 -11.289062 C 9.203125 -11.386719 9.582031 -11.417969 9.898438 -11.386719 C 10.214844 -11.324219 10.691406 -11.324219 10.972656 -11.355469 C 11.226562 -11.386719 11.605469 -11.355469 11.765625 -11.324219 C 11.921875 -11.289062 12.175781 -11.324219 12.304688 -11.449219 C 12.460938 -11.636719 12.492188 -11.703125 12.304688 -11.988281 Z M 10.027344 -13.820312 C 9.835938 -13.851562 9.550781 -13.882812 9.363281 -13.851562 C 9.203125 -13.820312 9.046875 -13.851562 9.011719 -13.914062 C 8.949219 -14.042969 9.835938 -14.105469 10.183594 -14.042969 C 10.34375 -13.980469 10.4375 -13.914062 10.40625 -13.851562 C 10.375 -13.757812 10.214844 -13.757812 10.027344 -13.820312 Z M 10.972656 -13.695312 C 10.691406 -13.597656 10.5625 -13.632812 10.625 -13.789062 C 10.660156 -13.851562 10.785156 -13.882812 10.941406 -13.820312 C 11.132812 -13.789062 11.132812 -13.757812 10.972656 -13.695312 Z M 10.972656 -13.695312 "/></g></g></g><g fill="#393838" fill-opacity="1"><g transform="translate(153.327396, 116.161341)"><g><path d="M 8.730469 -17.046875 C 8.855469 -17.046875 9.234375 -17.488281 9.140625 -17.585938 C 9.046875 -17.710938 8.699219 -17.457031 8.664062 -17.238281 C 8.632812 -17.140625 8.664062 -17.046875 8.730469 -17.046875 Z M 18.5 -11.289062 C 18.058594 -10.660156 17.554688 -9.960938 17.394531 -9.742188 C 17.238281 -9.519531 16.574219 -8.570312 15.910156 -7.589844 C 15.277344 -6.609375 14.613281 -5.691406 14.453125 -5.503906 C 14.296875 -5.34375 14.199219 -5.1875 14.230469 -5.1875 C 14.328125 -5.1875 13.882812 -4.363281 13.695312 -4.207031 C 13.597656 -4.113281 13.503906 -4.015625 13.503906 -3.953125 C 13.503906 -3.859375 13.378906 -3.667969 13.21875 -3.480469 L 12.933594 -3.132812 L 13.21875 -3.667969 C 13.378906 -3.953125 13.503906 -4.238281 13.503906 -4.332031 C 13.503906 -4.394531 13.410156 -4.332031 13.316406 -4.144531 C 13.21875 -3.953125 13.0625 -3.699219 12.933594 -3.542969 C 12.808594 -3.382812 12.746094 -3.195312 12.777344 -3.066406 C 12.839844 -2.941406 12.808594 -2.878906 12.683594 -2.878906 C 12.585938 -2.878906 12.523438 -2.816406 12.554688 -2.75 C 12.585938 -2.6875 12.585938 -2.65625 12.523438 -2.65625 C 12.460938 -2.65625 12.207031 -2.339844 11.953125 -1.960938 C 11.671875 -1.582031 11.324219 -1.074219 11.164062 -0.824219 C 11.007812 -0.570312 10.722656 -0.222656 10.5625 -0.0625 C 10.40625 0.125 10.277344 0.316406 10.277344 0.347656 C 10.277344 0.410156 10.089844 0.539062 9.582031 0.757812 C 9.550781 0.789062 9.519531 0.03125 9.550781 -0.949219 C 9.613281 -2.941406 9.679688 -3.699219 9.835938 -4.300781 C 9.898438 -4.523438 9.992188 -5.125 10.027344 -5.628906 C 10.058594 -6.167969 10.277344 -7.335938 10.53125 -8.316406 C 10.785156 -9.234375 11.007812 -10.214844 11.039062 -10.4375 C 11.070312 -10.660156 11.132812 -10.847656 11.164062 -10.847656 C 11.226562 -10.847656 11.257812 -11.039062 11.257812 -11.289062 C 11.257812 -11.542969 11.355469 -11.953125 11.480469 -12.207031 C 11.605469 -12.460938 11.734375 -12.871094 11.765625 -13.09375 C 11.765625 -13.285156 11.828125 -13.535156 11.859375 -13.597656 C 11.921875 -13.664062 11.921875 -13.789062 11.890625 -13.851562 C 11.859375 -13.914062 11.859375 -13.949219 11.921875 -13.949219 C 12.019531 -13.949219 12.398438 -15.433594 12.398438 -15.8125 C 12.398438 -15.941406 12.460938 -16.128906 12.523438 -16.191406 C 12.617188 -16.289062 12.683594 -16.507812 12.714844 -16.667969 C 12.746094 -16.855469 12.777344 -17.015625 12.839844 -17.046875 C 12.871094 -17.109375 12.96875 -17.269531 13 -17.457031 C 13.09375 -18.027344 13.632812 -19.796875 13.820312 -20.304688 C 13.949219 -20.558594 14.042969 -20.84375 14.074219 -20.90625 C 14.074219 -20.96875 14.136719 -21.09375 14.167969 -21.222656 C 14.230469 -21.347656 14.296875 -21.539062 14.328125 -21.601562 C 14.359375 -21.695312 14.421875 -21.855469 14.484375 -21.949219 C 14.644531 -22.171875 14.894531 -22.804688 15.054688 -23.339844 C 15.148438 -23.59375 15.402344 -24.195312 15.65625 -24.667969 C 15.941406 -25.144531 16.382812 -26.09375 16.667969 -26.726562 C 16.953125 -27.355469 17.363281 -28.085938 17.519531 -28.371094 C 17.710938 -28.652344 17.867188 -29.035156 17.902344 -29.222656 C 17.964844 -29.601562 17.679688 -30.394531 17.488281 -30.394531 C 17.394531 -30.394531 17.238281 -30.488281 17.078125 -30.613281 C 16.792969 -30.898438 16.636719 -30.929688 16.003906 -30.929688 C 15.65625 -30.960938 15.496094 -30.867188 15.339844 -30.679688 C 15.242188 -30.550781 15.054688 -30.296875 14.929688 -30.171875 C 14.832031 -30.046875 14.644531 -29.792969 14.578125 -29.601562 C 14.515625 -29.445312 14.390625 -29.222656 14.296875 -29.128906 C 14.199219 -29.035156 14.167969 -28.9375 14.230469 -28.9375 C 14.261719 -28.9375 14.042969 -28.433594 13.726562 -27.863281 C 12.808594 -26.15625 12.523438 -25.585938 12.335938 -24.984375 C 12.238281 -24.699219 11.890625 -23.847656 11.542969 -23.121094 C 11.195312 -22.390625 10.847656 -21.472656 10.722656 -21.0625 C 10.59375 -20.652344 10.34375 -20.179688 10.183594 -19.957031 C 9.773438 -19.417969 9.582031 -19.070312 9.742188 -19.070312 C 9.804688 -19.070312 9.867188 -19.101562 9.867188 -19.132812 C 9.867188 -19.199219 9.960938 -19.386719 10.121094 -19.578125 L 10.40625 -19.894531 L 10.183594 -19.292969 C 10.089844 -18.945312 9.929688 -18.46875 9.867188 -18.21875 C 9.613281 -17.457031 9.265625 -16.636719 9.171875 -16.636719 C 9.140625 -16.636719 9.046875 -16.539062 9.011719 -16.414062 C 8.980469 -16.320312 8.824219 -16.097656 8.699219 -15.910156 L 8.445312 -15.59375 L 8.476562 -16.257812 C 8.476562 -16.636719 8.445312 -17.015625 8.347656 -17.238281 C 8.253906 -17.394531 8.191406 -17.710938 8.191406 -17.933594 C 8.191406 -18.25 8.097656 -18.40625 7.621094 -18.882812 C 7.117188 -19.386719 7.019531 -19.449219 6.484375 -19.480469 C 5.914062 -19.515625 5.789062 -19.480469 4.679688 -18.914062 C 3.480469 -18.28125 2.59375 -17.554688 2.308594 -16.984375 C 2.214844 -16.824219 1.769531 -16.097656 1.328125 -15.402344 C 0.507812 -14.136719 0.0625 -13.410156 -0.601562 -12.175781 C -0.789062 -11.859375 -1.011719 -11.511719 -1.074219 -11.417969 C -1.136719 -11.324219 -1.359375 -10.910156 -1.488281 -10.53125 C -1.867188 -9.582031 -2.339844 -8.507812 -2.46875 -8.285156 C -2.816406 -7.652344 -2.65625 -6.355469 -2.152344 -6.039062 C -2.023438 -5.945312 -1.898438 -5.789062 -1.898438 -5.660156 C -1.898438 -5.34375 -1.488281 -4.777344 -1.136719 -4.585938 C -0.726562 -4.363281 0.410156 -4.332031 0.917969 -4.492188 C 1.390625 -4.648438 1.960938 -4.996094 1.960938 -5.1875 C 1.960938 -5.25 2.023438 -5.3125 2.085938 -5.3125 C 2.402344 -5.3125 4.523438 -7.652344 4.523438 -8 C 4.523438 -8.066406 4.679688 -8.316406 4.871094 -8.601562 C 5.28125 -9.203125 5.40625 -9.394531 5.722656 -9.960938 C 5.851562 -10.183594 6.074219 -10.625 6.292969 -10.941406 C 6.484375 -11.257812 6.640625 -11.574219 6.640625 -11.636719 C 6.640625 -11.671875 6.738281 -11.828125 6.863281 -11.988281 C 6.957031 -12.144531 7.085938 -12.398438 7.148438 -12.554688 C 7.179688 -12.714844 7.367188 -13.03125 7.558594 -13.25 C 7.75 -13.503906 8.097656 -14.074219 8.316406 -14.515625 C 8.539062 -14.992188 8.855469 -15.496094 9.011719 -15.6875 L 9.296875 -16.003906 L 9.011719 -15.023438 C 8.855469 -14.453125 8.632812 -13.597656 8.507812 -13.125 C 8.414062 -12.652344 8.128906 -11.480469 7.90625 -10.53125 C 7.683594 -9.582031 7.464844 -8.699219 7.464844 -8.570312 C 7.433594 -8.476562 7.402344 -8.222656 7.367188 -8.066406 C 7.335938 -7.9375 7.273438 -7.527344 7.242188 -7.179688 C 7.210938 -6.863281 7.085938 -6.199219 6.988281 -5.691406 C 6.925781 -5.21875 6.832031 -3.890625 6.800781 -2.75 C 6.703125 0.03125 6.832031 0.570312 7.9375 1.675781 C 8.222656 1.960938 8.570312 2.214844 8.792969 2.277344 C 9.328125 2.46875 10.214844 2.46875 10.46875 2.277344 C 10.59375 2.214844 10.753906 2.117188 10.878906 2.117188 C 10.972656 2.117188 11.070312 2.085938 11.101562 2.054688 C 11.101562 1.992188 11.355469 1.769531 11.671875 1.519531 C 12.144531 1.136719 12.429688 0.757812 12.902344 0.03125 C 12.96875 -0.0625 13.03125 -0.191406 13.0625 -0.222656 C 13.09375 -0.253906 13.21875 -0.441406 13.316406 -0.664062 C 13.441406 -0.855469 13.632812 -1.203125 13.726562 -1.390625 C 13.851562 -1.550781 13.980469 -1.769531 14.011719 -1.867188 C 14.199219 -2.308594 14.359375 -2.625 14.546875 -2.878906 C 14.644531 -3.035156 14.738281 -3.257812 14.738281 -3.351562 C 14.738281 -3.449219 14.800781 -3.574219 14.863281 -3.667969 C 14.960938 -3.730469 15.054688 -3.953125 15.148438 -4.113281 C 15.210938 -4.300781 15.339844 -4.429688 15.402344 -4.429688 C 15.464844 -4.429688 15.496094 -4.492188 15.496094 -4.585938 C 15.496094 -4.648438 15.78125 -5.15625 16.128906 -5.691406 C 16.445312 -6.230469 16.730469 -6.703125 16.730469 -6.703125 C 16.730469 -6.738281 16.855469 -6.925781 17.015625 -7.117188 C 17.140625 -7.335938 17.269531 -7.527344 17.269531 -7.589844 C 17.269531 -7.621094 17.171875 -7.527344 17.046875 -7.367188 C 16.636719 -6.832031 16.699219 -7.148438 17.140625 -7.84375 C 17.648438 -8.570312 17.773438 -8.980469 17.554688 -8.886719 C 17.457031 -8.855469 17.363281 -8.699219 17.332031 -8.570312 C 17.269531 -8.316406 17.140625 -8.253906 16.921875 -8.285156 C 16.855469 -8.316406 16.855469 -8.253906 16.890625 -8.222656 C 16.984375 -8.03125 16.636719 -7.304688 16.445312 -7.304688 C 16.351562 -7.304688 16.289062 -7.273438 16.289062 -7.273438 C 16.289062 -7.242188 16.257812 -7.117188 16.191406 -7.019531 C 16.160156 -6.863281 16.160156 -6.832031 16.289062 -6.925781 C 16.382812 -6.957031 16.289062 -6.738281 16.097656 -6.421875 C 15.910156 -6.074219 15.65625 -5.789062 15.59375 -5.757812 C 15.464844 -5.722656 15.464844 -5.757812 15.59375 -5.882812 C 15.6875 -6.007812 15.71875 -6.074219 15.59375 -6.105469 C 15.496094 -6.136719 15.875 -7.019531 16.191406 -7.367188 C 16.257812 -7.464844 16.257812 -7.558594 16.222656 -7.621094 C 16.191406 -7.683594 16.382812 -7.96875 16.636719 -8.285156 C 17.046875 -8.855469 17.679688 -9.742188 18.882812 -11.480469 C 19.703125 -12.746094 19.386719 -12.554688 18.5 -11.289062 Z M 7.148438 -14.328125 C 7.019531 -13.757812 6.769531 -13.316406 6.546875 -13.378906 C 6.484375 -13.410156 6.421875 -13.316406 6.386719 -13.1875 C 6.355469 -12.902344 6.136719 -12.777344 6.007812 -12.96875 C 5.976562 -13.03125 6.007812 -13.09375 6.074219 -13.09375 C 6.136719 -13.09375 6.261719 -13.21875 6.355469 -13.410156 C 6.484375 -13.632812 6.578125 -13.726562 6.703125 -13.695312 C 6.800781 -13.664062 6.863281 -13.695312 6.863281 -13.789062 C 6.863281 -13.882812 6.800781 -13.949219 6.738281 -13.949219 C 6.703125 -13.949219 6.769531 -14.167969 6.894531 -14.390625 C 7.019531 -14.644531 7.179688 -14.832031 7.210938 -14.832031 C 7.242188 -14.832031 7.210938 -14.613281 7.148438 -14.328125 Z M 6.957031 -14.929688 C 6.769531 -14.644531 6.578125 -14.421875 6.515625 -14.453125 C 6.453125 -14.484375 6.453125 -14.453125 6.484375 -14.328125 C 6.546875 -14.199219 6.515625 -14.167969 6.421875 -14.230469 C 6.355469 -14.261719 6.324219 -14.230469 6.355469 -14.167969 C 6.386719 -14.074219 6.324219 -13.914062 6.230469 -13.789062 C 6.074219 -13.566406 6.074219 -13.566406 6.136719 -13.789062 C 6.199219 -13.980469 6.167969 -13.980469 5.976562 -13.757812 C 5.851562 -13.597656 5.757812 -13.410156 5.757812 -13.378906 C 5.757812 -13.316406 5.691406 -13.21875 5.597656 -13.125 C 5.34375 -12.839844 5.25 -12.683594 4.679688 -11.859375 C 3.542969 -10.121094 1.613281 -7.652344 0.886719 -6.988281 C 0.09375 -6.261719 -0.09375 -6.167969 0.03125 -6.546875 C 0.253906 -7.335938 2.625 -12.335938 2.847656 -12.523438 C 2.910156 -12.554688 3.003906 -12.777344 3.132812 -13 C 3.226562 -13.21875 3.351562 -13.410156 3.382812 -13.410156 C 3.449219 -13.410156 3.574219 -13.597656 3.699219 -13.820312 C 3.921875 -14.261719 4.363281 -14.960938 4.523438 -15.148438 C 4.585938 -15.210938 4.648438 -15.339844 4.648438 -15.402344 C 4.648438 -15.464844 4.871094 -15.84375 5.1875 -16.222656 C 5.503906 -16.636719 5.757812 -16.984375 5.757812 -17.046875 C 5.757812 -17.140625 5.789062 -17.171875 5.882812 -17.171875 C 5.945312 -17.171875 6.167969 -17.363281 6.324219 -17.585938 C 6.515625 -17.804688 6.671875 -17.933594 6.703125 -17.902344 C 6.832031 -17.804688 7.304688 -16.382812 7.304688 -16.191406 C 7.335938 -15.6875 7.273438 -15.402344 6.957031 -14.929688 Z M 6.957031 -14.929688 "/></g></g></g><g fill="#393838" fill-opacity="1"><g transform="translate(175.429952, 116.161341)"><g><path d="M 14.546875 -13.757812 C 14.390625 -13.535156 14.136719 -13.25 14.011719 -13.09375 C 13.851562 -12.933594 13.664062 -12.652344 13.503906 -12.492188 C 12.871094 -11.636719 12.238281 -10.878906 12.019531 -10.660156 C 11.859375 -10.53125 11.765625 -10.375 11.828125 -10.308594 C 11.859375 -10.246094 11.765625 -10.121094 11.605469 -9.992188 C 11.480469 -9.867188 11.324219 -9.679688 11.289062 -9.550781 C 11.226562 -9.425781 11.101562 -9.265625 10.972656 -9.234375 C 10.878906 -9.203125 10.785156 -9.140625 10.816406 -9.078125 C 10.847656 -9.046875 10.660156 -8.824219 10.4375 -8.632812 C 10.183594 -8.445312 9.992188 -8.222656 9.992188 -8.160156 C 9.992188 -8.03125 8.886719 -6.925781 8.824219 -6.988281 C 8.730469 -7.085938 9.234375 -7.96875 9.363281 -7.90625 C 9.425781 -7.84375 9.425781 -7.875 9.394531 -7.9375 C 9.296875 -8.097656 9.613281 -8.347656 9.773438 -8.253906 C 9.835938 -8.191406 9.867188 -8.253906 9.804688 -8.476562 C 9.742188 -8.761719 9.773438 -8.761719 9.960938 -8.730469 C 10.089844 -8.664062 10.183594 -8.699219 10.152344 -8.761719 C 10.121094 -8.792969 10.277344 -9.046875 10.53125 -9.265625 C 10.753906 -9.519531 11.039062 -9.867188 11.195312 -10.027344 C 11.355469 -10.214844 11.636719 -10.5625 11.859375 -10.785156 C 12.617188 -11.636719 13.378906 -12.554688 13.472656 -12.714844 C 13.664062 -13.03125 13.347656 -12.777344 12.808594 -12.175781 C 11.636719 -10.847656 11.449219 -10.625 11.070312 -10.121094 C 10.847656 -9.804688 10.4375 -9.363281 10.121094 -9.078125 C 9.835938 -8.792969 9.328125 -8.253906 8.980469 -7.90625 C 8.382812 -7.242188 6.703125 -5.914062 6.355469 -5.789062 C 6.261719 -5.757812 6.421875 -5.945312 6.703125 -6.199219 C 7.558594 -6.957031 8.347656 -7.75 8.792969 -8.285156 C 8.980469 -8.570312 9.265625 -8.886719 9.394531 -9.046875 C 9.519531 -9.171875 9.644531 -9.296875 9.613281 -9.296875 C 9.582031 -9.296875 9.898438 -9.644531 10.308594 -10.058594 C 11.480469 -11.226562 11.921875 -11.828125 11.796875 -12.019531 C 11.703125 -12.175781 11.671875 -12.175781 11.542969 -12.019531 C 11.449219 -11.921875 11.449219 -11.859375 11.542969 -11.859375 C 11.605469 -11.859375 11.605469 -11.765625 11.574219 -11.671875 C 11.542969 -11.605469 11.480469 -11.511719 11.417969 -11.511719 C 11.355469 -11.511719 11.324219 -11.574219 11.386719 -11.636719 C 11.417969 -11.703125 11.386719 -11.734375 11.324219 -11.734375 C 11.289062 -11.734375 11.070312 -11.511719 10.910156 -11.257812 C 10.753906 -10.972656 10.5625 -10.753906 10.53125 -10.753906 C 10.375 -10.753906 9.804688 -10.152344 9.109375 -9.296875 C 8.253906 -8.316406 7.96875 -8.03125 7.367188 -7.558594 C 7.054688 -7.335938 6.800781 -7.117188 6.769531 -7.085938 C 6.609375 -6.863281 4.113281 -4.808594 3.667969 -4.554688 C 3.066406 -4.207031 2.183594 -3.984375 1.582031 -4.078125 C 0.980469 -4.144531 0.917969 -4.269531 0.917969 -5.535156 C 0.886719 -6.578125 1.042969 -7.558594 1.390625 -8.632812 C 1.550781 -9.109375 1.738281 -9.773438 1.835938 -10.121094 C 1.929688 -10.5 2.117188 -11.007812 2.277344 -11.257812 L 2.59375 -11.734375 L 2.941406 -11.542969 C 3.449219 -11.289062 4.113281 -11.417969 5.535156 -12.050781 C 6.925781 -12.683594 7.84375 -13.378906 8.414062 -14.167969 C 8.601562 -14.453125 8.949219 -14.894531 9.140625 -15.117188 C 9.363281 -15.371094 9.644531 -15.78125 9.773438 -16.035156 C 9.929688 -16.289062 10.058594 -16.507812 10.121094 -16.507812 C 10.152344 -16.507812 10.214844 -16.574219 10.214844 -16.605469 C 10.214844 -16.667969 10.34375 -16.921875 10.46875 -17.140625 C 10.816406 -17.679688 11.132812 -18.691406 11.195312 -19.578125 C 11.226562 -20.113281 11.195312 -20.304688 10.972656 -20.683594 C 10.34375 -21.757812 10.089844 -21.917969 9.109375 -21.949219 C 8.097656 -21.980469 8.066406 -21.980469 7.054688 -21.726562 C 5.125 -21.222656 3.226562 -19.355469 1.136719 -15.910156 C 0.601562 -15.054688 0.15625 -14.296875 0.09375 -14.230469 C -0.410156 -13.597656 -0.664062 -13.0625 -0.980469 -11.796875 C -1.105469 -11.324219 -1.265625 -10.785156 -1.328125 -10.625 C -1.390625 -10.46875 -1.453125 -10.089844 -1.488281 -9.804688 C -1.519531 -9.488281 -1.613281 -8.855469 -1.644531 -8.414062 C -1.898438 -6.578125 -1.519531 -4.996094 -0.570312 -3.667969 C -0.253906 -3.226562 0.191406 -2.78125 0.378906 -2.65625 C 0.855469 -2.371094 1.992188 -2.023438 2.78125 -1.929688 C 3.132812 -1.867188 3.382812 -1.835938 3.414062 -1.835938 C 3.449219 -1.800781 3.730469 -1.835938 4.078125 -1.929688 C 4.902344 -2.085938 5.535156 -2.46875 6.894531 -3.761719 C 7.527344 -4.332031 8.222656 -4.964844 8.445312 -5.1875 C 8.699219 -5.40625 8.886719 -5.660156 8.886719 -5.722656 C 8.886719 -5.789062 9.109375 -6.105469 9.363281 -6.386719 C 9.613281 -6.703125 9.992188 -7.179688 10.214844 -7.464844 C 10.4375 -7.75 10.660156 -8.03125 10.722656 -8.128906 C 11.039062 -8.476562 12.554688 -10.691406 12.554688 -10.816406 C 12.554688 -10.878906 12.617188 -10.972656 12.746094 -11.070312 C 13.03125 -11.355469 13.664062 -12.082031 13.980469 -12.554688 C 14.136719 -12.808594 14.296875 -13.03125 14.328125 -13.0625 C 14.484375 -13.21875 15.054688 -14.042969 15.117188 -14.199219 C 15.242188 -14.578125 15.023438 -14.390625 14.546875 -13.757812 Z M 3.542969 -13.378906 C 3.761719 -13.789062 3.953125 -14.167969 3.921875 -14.261719 C 3.890625 -14.390625 4.808594 -15.941406 5.15625 -16.320312 C 5.25 -16.414062 5.34375 -16.539062 5.34375 -16.605469 C 5.34375 -16.636719 5.472656 -16.824219 5.628906 -16.953125 C 5.757812 -17.109375 5.882812 -17.269531 5.882812 -17.300781 C 5.882812 -17.554688 7.464844 -19.132812 8.097656 -19.515625 C 8.347656 -19.640625 8.792969 -19.988281 9.078125 -20.242188 C 9.363281 -20.496094 9.644531 -20.714844 9.679688 -20.714844 C 9.710938 -20.714844 9.742188 -20.367188 9.742188 -19.988281 C 9.710938 -19.355469 9.644531 -19.070312 9.234375 -18.25 C 8.761719 -17.203125 8.414062 -16.699219 7.273438 -15.277344 C 6.292969 -14.074219 5.914062 -13.757812 4.238281 -12.902344 C 3.667969 -12.617188 3.132812 -12.460938 3.132812 -12.554688 C 3.132812 -12.585938 3.289062 -12.96875 3.542969 -13.378906 Z M 8.507812 -6.546875 C 8.347656 -6.386719 8.222656 -6.324219 8.160156 -6.386719 C 8.097656 -6.515625 8.632812 -6.925781 8.730469 -6.832031 C 8.761719 -6.800781 8.664062 -6.671875 8.507812 -6.546875 Z M 13.410156 -13.503906 C 14.484375 -14.675781 14.613281 -14.832031 14.421875 -14.992188 C 14.328125 -15.054688 14.328125 -15.085938 14.359375 -14.992188 C 14.453125 -14.800781 14.136719 -14.453125 13.757812 -14.296875 C 13.597656 -14.199219 13.441406 -14.074219 13.441406 -14.011719 C 13.441406 -13.914062 13.1875 -13.597656 12.933594 -13.347656 C 12.652344 -13.0625 12.429688 -12.777344 12.429688 -12.714844 C 12.429688 -12.523438 12.554688 -12.617188 13.410156 -13.503906 Z M 13.410156 -13.503906 "/></g></g></g><g fill="#393838" fill-opacity="1"><g transform="translate(193.169384, 116.161341)"><g><path d="M -0.664062 -10.878906 C -0.632812 -11.007812 -0.570312 -11.195312 -0.570312 -11.289062 C -0.570312 -11.417969 -0.601562 -11.417969 -0.664062 -11.289062 C -0.757812 -11.195312 -0.789062 -11.007812 -0.789062 -10.878906 L -0.789062 -10.660156 Z M 13.695312 -12.839844 C 13.914062 -13.125 14.074219 -13.695312 13.949219 -13.789062 C 13.882812 -13.820312 13.757812 -13.789062 13.726562 -13.695312 C 13.664062 -13.632812 13.285156 -13.21875 12.871094 -12.808594 C 12.113281 -12.050781 11.988281 -11.796875 12.683594 -12.398438 C 13.125 -12.808594 13.15625 -12.746094 12.808594 -12.207031 C 12.304688 -11.480469 7.335938 -6.546875 7.210938 -6.640625 C 7.179688 -6.703125 7.367188 -6.925781 7.621094 -7.210938 C 8.222656 -7.84375 8.761719 -8.570312 8.664062 -8.664062 C 8.632812 -8.699219 8.699219 -8.730469 8.824219 -8.730469 C 9.140625 -8.730469 9.203125 -8.824219 9.011719 -9.046875 C 8.855469 -9.171875 8.792969 -9.140625 8.414062 -8.699219 C 8.160156 -8.445312 7.96875 -8.285156 7.96875 -8.382812 C 7.96875 -8.445312 8.316406 -8.855469 8.761719 -9.296875 C 11.417969 -11.828125 13.441406 -13.820312 13.410156 -13.882812 C 13.378906 -13.914062 12.714844 -13.347656 11.953125 -12.617188 C 11.195312 -11.859375 10.214844 -10.941406 9.742188 -10.53125 C 9.296875 -10.121094 7.8125 -8.699219 6.484375 -7.335938 C 3.414062 -4.332031 2.78125 -3.730469 2.53125 -3.730469 C 2.308594 -3.730469 2.023438 -4.113281 2.152344 -4.300781 C 2.183594 -4.332031 2.152344 -4.394531 2.054688 -4.429688 C 1.960938 -4.460938 1.898438 -4.808594 1.898438 -5.40625 C 1.867188 -5.914062 1.800781 -6.386719 1.769531 -6.453125 C 1.707031 -6.484375 1.738281 -6.769531 1.835938 -7.117188 C 1.929688 -7.433594 1.960938 -7.875 1.929688 -8.160156 C 1.898438 -8.414062 1.898438 -8.632812 1.960938 -8.632812 C 2.085938 -8.632812 2.214844 -9.046875 2.085938 -9.109375 C 2.023438 -9.140625 1.960938 -9.234375 1.960938 -9.296875 C 1.960938 -9.363281 2.023438 -9.363281 2.085938 -9.328125 C 2.183594 -9.265625 2.214844 -9.296875 2.152344 -9.394531 C 2.085938 -9.457031 2.117188 -9.582031 2.214844 -9.613281 C 2.339844 -9.710938 2.308594 -9.710938 2.152344 -9.742188 C 1.929688 -9.742188 1.929688 -9.742188 2.117188 -9.898438 C 2.371094 -10.058594 2.371094 -10.277344 2.117188 -10.277344 C 1.929688 -10.277344 1.929688 -10.277344 2.117188 -10.40625 C 2.214844 -10.46875 2.277344 -10.59375 2.246094 -10.691406 C 2.183594 -10.816406 2.214844 -10.847656 2.339844 -10.816406 C 2.46875 -10.753906 2.53125 -10.785156 2.53125 -10.910156 C 2.53125 -11.007812 2.5 -11.039062 2.433594 -11.007812 C 2.277344 -10.910156 2.433594 -11.636719 2.59375 -11.765625 C 2.78125 -11.921875 2.878906 -12.269531 2.75 -12.269531 C 2.59375 -12.269531 2.71875 -12.871094 2.847656 -12.933594 C 2.910156 -12.933594 2.910156 -13.125 2.910156 -13.378906 C 2.910156 -13.597656 2.941406 -13.949219 3.035156 -14.105469 C 3.132812 -14.328125 3.164062 -14.359375 3.132812 -14.199219 C 3.097656 -14.042969 3.132812 -13.949219 3.164062 -13.949219 C 3.226562 -13.949219 3.320312 -14.136719 3.351562 -14.328125 C 3.414062 -14.546875 3.449219 -14.832031 3.480469 -14.929688 C 3.511719 -15.023438 3.480469 -14.992188 3.414062 -14.863281 C 3.257812 -14.613281 3.097656 -14.515625 3.097656 -14.707031 C 3.097656 -14.769531 3.132812 -14.832031 3.195312 -14.832031 C 3.257812 -14.832031 3.320312 -14.894531 3.289062 -14.960938 C 3.257812 -15.210938 3.449219 -15.59375 3.574219 -15.59375 C 3.667969 -15.59375 3.761719 -15.6875 3.796875 -15.78125 C 3.828125 -15.875 3.796875 -15.941406 3.761719 -15.941406 C 3.636719 -15.941406 3.699219 -16.761719 3.796875 -16.953125 C 3.828125 -16.984375 3.953125 -17.015625 4.046875 -16.984375 C 4.238281 -16.921875 4.238281 -16.921875 4.113281 -17.078125 C 3.984375 -17.238281 3.984375 -17.269531 4.113281 -17.269531 C 4.363281 -17.269531 4.363281 -17.457031 4.144531 -17.519531 C 4.015625 -17.554688 4.015625 -17.617188 4.175781 -17.964844 C 4.300781 -18.183594 4.429688 -18.5 4.460938 -18.628906 C 4.492188 -18.816406 4.617188 -18.945312 4.710938 -18.945312 C 4.777344 -18.945312 4.871094 -18.976562 4.871094 -19.070312 C 4.871094 -19.101562 4.808594 -19.132812 4.742188 -19.101562 C 4.648438 -19.039062 4.617188 -19.070312 4.679688 -19.230469 C 4.777344 -19.449219 4.871094 -19.796875 4.902344 -20.050781 C 4.902344 -20.144531 5.027344 -20.304688 5.125 -20.429688 C 5.25 -20.558594 5.34375 -20.746094 5.34375 -20.875 C 5.34375 -21 5.40625 -21.222656 5.472656 -21.347656 C 5.566406 -21.472656 5.628906 -21.695312 5.628906 -21.824219 C 5.628906 -21.949219 5.691406 -22.140625 5.722656 -22.234375 C 5.789062 -22.328125 5.945312 -22.707031 6.074219 -23.085938 C 6.230469 -23.46875 6.386719 -23.785156 6.421875 -23.816406 C 6.453125 -23.847656 6.578125 -24.097656 6.671875 -24.414062 C 6.800781 -24.699219 6.957031 -25.113281 7.085938 -25.269531 C 7.210938 -25.460938 7.335938 -25.648438 7.335938 -25.710938 C 7.402344 -25.964844 7.683594 -26.535156 8.03125 -27.039062 C 8.476562 -27.703125 8.632812 -27.925781 8.699219 -28.148438 C 8.761719 -28.242188 8.824219 -28.371094 8.886719 -28.433594 C 9.488281 -29.160156 10.058594 -30.015625 10.121094 -30.265625 C 10.183594 -30.613281 9.929688 -31.34375 9.710938 -31.34375 C 9.644531 -31.34375 9.457031 -31.5 9.296875 -31.691406 C 9.046875 -32.007812 8.949219 -32.039062 8.382812 -32.070312 C 7.75 -32.070312 7.71875 -32.070312 7.402344 -31.691406 C 6.863281 -31.089844 6.167969 -29.949219 5.535156 -28.683594 C 5.1875 -28.054688 4.902344 -27.515625 4.839844 -27.484375 C 4.710938 -27.355469 3.636719 -25.175781 3.636719 -25.015625 C 3.636719 -24.921875 3.574219 -24.796875 3.511719 -24.765625 C 3.449219 -24.699219 3.449219 -24.605469 3.449219 -24.511719 C 3.480469 -24.449219 3.480469 -24.351562 3.414062 -24.320312 C 3.351562 -24.257812 3.351562 -24.164062 3.449219 -24.066406 C 3.542969 -23.941406 3.511719 -23.847656 3.320312 -23.59375 C 3.195312 -23.402344 3.097656 -23.183594 3.097656 -23.054688 C 3.097656 -22.929688 3.066406 -22.804688 3.003906 -22.769531 C 2.941406 -22.707031 2.910156 -22.644531 2.910156 -22.613281 C 2.910156 -22.550781 2.847656 -22.359375 2.65625 -21.886719 C 2.59375 -21.757812 2.46875 -21.316406 2.308594 -20.875 C 2.183594 -20.429688 2.023438 -19.988281 1.960938 -19.863281 C 1.929688 -19.765625 1.867188 -19.515625 1.800781 -19.386719 C 1.769531 -19.230469 1.582031 -18.660156 1.359375 -18.089844 C 1.171875 -17.554688 0.949219 -16.890625 0.855469 -16.605469 C 0.789062 -16.320312 0.695312 -16.003906 0.632812 -15.910156 C 0.570312 -15.78125 0.539062 -15.65625 0.601562 -15.59375 C 0.632812 -15.527344 0.601562 -15.433594 0.539062 -15.339844 C 0.472656 -15.242188 0.410156 -15.085938 0.441406 -14.960938 C 0.441406 -14.863281 0.410156 -14.644531 0.347656 -14.515625 C 0.253906 -14.390625 0.222656 -14.261719 0.253906 -14.261719 C 0.285156 -14.261719 0.222656 -14.074219 0.125 -13.820312 C 0.03125 -13.535156 -0.09375 -13.09375 -0.125 -12.777344 C -0.191406 -12.460938 -0.316406 -11.859375 -0.410156 -11.449219 C -0.632812 -10.375 -0.664062 -10.183594 -0.695312 -9.835938 C -0.695312 -9.582031 -0.726562 -9.582031 -0.789062 -9.773438 C -0.886719 -9.960938 -0.886719 -9.929688 -0.886719 -9.582031 C -0.855469 -9.363281 -0.886719 -9.171875 -0.917969 -9.171875 C -0.980469 -9.171875 -1.011719 -8.445312 -0.980469 -7.527344 C -0.949219 -6.324219 -0.886719 -5.722656 -0.726562 -5.25 C -0.472656 -4.460938 0.15625 -3.449219 0.472656 -3.351562 C 0.601562 -3.289062 0.726562 -3.226562 0.757812 -3.195312 C 1.042969 -2.75 1.582031 -2.308594 1.769531 -2.277344 C 1.929688 -2.246094 2.152344 -2.183594 2.214844 -2.117188 C 2.308594 -2.054688 2.433594 -1.960938 2.53125 -1.929688 C 2.910156 -1.769531 3.859375 -1.867188 4.492188 -2.085938 C 5.027344 -2.277344 5.34375 -2.5 5.976562 -3.097656 C 6.386719 -3.511719 6.800781 -3.859375 6.863281 -3.859375 C 6.894531 -3.859375 6.988281 -3.953125 7.019531 -4.113281 C 7.085938 -4.238281 7.210938 -4.460938 7.367188 -4.617188 C 7.496094 -4.777344 7.652344 -4.996094 7.71875 -5.09375 C 7.84375 -5.34375 8.601562 -6.261719 9.140625 -6.800781 C 9.425781 -7.054688 9.644531 -7.304688 9.644531 -7.402344 C 9.644531 -7.464844 9.710938 -7.558594 9.835938 -7.589844 C 10.121094 -7.683594 11.070312 -8.632812 11.070312 -8.824219 C 11.070312 -8.917969 11.257812 -9.140625 11.511719 -9.363281 C 11.765625 -9.582031 11.953125 -9.835938 11.953125 -9.898438 C 11.953125 -9.960938 12.019531 -10.058594 12.113281 -10.089844 C 12.175781 -10.121094 12.175781 -10.152344 12.113281 -10.152344 C 12.050781 -10.183594 11.386719 -9.550781 10.59375 -8.761719 C 9.835938 -7.96875 9.140625 -7.304688 9.046875 -7.304688 C 8.980469 -7.273438 8.761719 -7.117188 8.601562 -6.925781 C 8.414062 -6.738281 8.253906 -6.609375 8.222656 -6.671875 C 8.191406 -6.703125 8.191406 -6.800781 8.285156 -6.863281 C 8.347656 -6.925781 8.382812 -7.054688 8.347656 -7.117188 C 8.253906 -7.335938 12.238281 -11.164062 12.585938 -11.164062 C 12.714844 -11.164062 12.839844 -11.257812 12.902344 -11.324219 C 12.933594 -11.449219 12.902344 -11.480469 12.839844 -11.449219 C 12.746094 -11.386719 12.746094 -11.449219 12.839844 -11.605469 C 12.902344 -11.734375 13.03125 -11.828125 13.125 -11.828125 C 13.347656 -11.828125 13.949219 -12.460938 13.949219 -12.714844 C 13.949219 -12.808594 13.851562 -12.746094 13.632812 -12.492188 C 13.378906 -12.207031 13.316406 -12.175781 13.410156 -12.398438 C 13.503906 -12.523438 13.632812 -12.746094 13.695312 -12.839844 Z M 5.976562 -27.421875 C 6.136719 -27.609375 6.199219 -27.609375 6.199219 -27.484375 C 6.199219 -27.421875 6.105469 -27.355469 6.007812 -27.324219 C 5.851562 -27.261719 5.851562 -27.261719 5.976562 -27.421875 Z M 5.21875 -24.097656 C 5.375 -24.257812 5.3125 -24.035156 4.964844 -23.246094 C 4.777344 -22.835938 4.648438 -22.453125 4.648438 -22.359375 C 4.648438 -22.296875 4.554688 -22.105469 4.492188 -21.949219 C 4.207031 -21.441406 3.859375 -20.460938 3.511719 -19.449219 C 3.414062 -19.101562 3.257812 -18.722656 3.195312 -18.628906 C 3.097656 -18.46875 3.097656 -18.46875 3.097656 -18.660156 C 3.097656 -19.101562 4.933594 -23.785156 5.21875 -24.097656 Z M 2.816406 -21.441406 L 3.097656 -21.757812 L 2.972656 -21.441406 C 2.878906 -21.285156 2.78125 -21.125 2.6875 -21.09375 C 2.46875 -21.03125 2.5 -21.0625 2.816406 -21.441406 Z M 2.71875 -20.875 C 2.75 -20.808594 2.65625 -20.527344 2.53125 -20.242188 C 2.433594 -19.988281 2.308594 -19.863281 2.308594 -19.957031 C 2.308594 -20.210938 2.65625 -21.03125 2.71875 -20.875 Z M 2.214844 -19.640625 C 2.246094 -19.703125 2.308594 -19.640625 2.308594 -19.546875 C 2.308594 -19.449219 2.246094 -19.386719 2.214844 -19.386719 C 2.054688 -19.386719 2.054688 -19.578125 2.214844 -19.640625 Z M 2.085938 -19.199219 C 2.152344 -19.261719 2.214844 -19.230469 2.214844 -19.164062 C 2.214844 -19.101562 2.152344 -19.007812 2.085938 -18.976562 C 2.023438 -18.945312 1.960938 -18.976562 1.960938 -19.039062 C 1.960938 -19.101562 2.023438 -19.164062 2.085938 -19.199219 Z M 1.929688 -18.566406 L 2.085938 -18.882812 L 2.054688 -18.566406 C 2.054688 -18.375 1.960938 -18.21875 1.898438 -18.183594 C 1.707031 -18.121094 1.707031 -18.183594 1.929688 -18.566406 Z M 0.601562 -8.253906 C 0.570312 -8.191406 0.507812 -7.71875 0.507812 -7.210938 C 0.441406 -6.039062 0.316406 -5.882812 0.316406 -6.925781 C 0.316406 -7.8125 0.410156 -8.382812 0.539062 -8.382812 C 0.601562 -8.382812 0.632812 -8.347656 0.601562 -8.253906 Z M 0.824219 -14.453125 C 0.507812 -13.347656 0.09375 -11.605469 0.09375 -11.355469 C 0.09375 -11.257812 0.03125 -11.164062 -0.03125 -11.164062 C -0.125 -11.164062 -0.125 -11.289062 -0.09375 -11.542969 C -0.03125 -11.734375 0.0625 -12.207031 0.15625 -12.617188 C 0.222656 -13 0.347656 -13.503906 0.410156 -13.726562 C 0.441406 -13.949219 0.601562 -14.484375 0.726562 -14.960938 C 0.855469 -15.433594 1.105469 -16.191406 1.265625 -16.667969 C 1.390625 -17.140625 1.519531 -17.585938 1.453125 -17.617188 C 1.453125 -17.648438 1.488281 -17.710938 1.582031 -17.742188 C 1.867188 -17.867188 1.898438 -17.648438 1.644531 -17.171875 C 1.550781 -16.953125 1.359375 -16.445312 1.265625 -16.035156 C 1.136719 -15.65625 0.949219 -14.929688 0.824219 -14.453125 Z M 10.753906 -10.660156 C 10.753906 -10.59375 10.910156 -10.753906 11.132812 -10.941406 C 11.511719 -11.289062 11.574219 -11.386719 11.480469 -11.386719 C 11.417969 -11.386719 10.753906 -10.722656 10.753906 -10.660156 Z M 10.753906 -10.660156 "/></g></g></g><g fill="#393838" fill-opacity="1"><g transform="translate(210.150008, 116.161341)"><g><path d="M 2.941406 -22.296875 C 3.035156 -22.234375 3.066406 -22.171875 3.035156 -22.140625 C 3.003906 -22.105469 3.289062 -21.917969 3.636719 -21.757812 C 3.984375 -21.601562 4.363281 -21.472656 4.460938 -21.507812 C 5.1875 -21.601562 5.503906 -21.949219 5.597656 -22.644531 C 5.628906 -22.929688 5.722656 -23.246094 5.820312 -23.371094 C 5.945312 -23.59375 6.355469 -24.667969 6.546875 -25.300781 C 6.738281 -25.933594 6.546875 -27.105469 6.261719 -27.105469 C 6.167969 -27.105469 6.136719 -27.167969 6.167969 -27.292969 C 6.199219 -27.453125 6.167969 -27.546875 6.105469 -27.546875 C 5.914062 -27.546875 5.3125 -26.976562 5.25 -26.726562 C 5.21875 -26.597656 5.027344 -26.375 4.902344 -26.21875 C 4.742188 -26.058594 4.460938 -25.648438 4.300781 -25.332031 C 4.113281 -25.015625 3.921875 -24.730469 3.859375 -24.699219 C 3.796875 -24.667969 3.730469 -24.511719 3.699219 -24.320312 C 3.667969 -24.132812 3.574219 -24.003906 3.511719 -24.003906 C 3.480469 -24.003906 3.414062 -23.941406 3.414062 -23.878906 C 3.414062 -23.816406 3.289062 -23.46875 3.097656 -23.085938 C 2.847656 -22.550781 2.816406 -22.421875 2.941406 -22.296875 Z M 4.742188 -3.667969 C 4.871094 -3.890625 5.027344 -4.144531 5.125 -4.238281 C 5.21875 -4.300781 5.472656 -4.617188 5.660156 -4.933594 C 5.851562 -5.25 6.105469 -5.597656 6.230469 -5.691406 C 6.324219 -5.789062 6.421875 -5.914062 6.421875 -5.945312 C 6.421875 -6.039062 7.054688 -7.019531 7.875 -8.285156 C 8.253906 -8.824219 8.632812 -9.425781 8.761719 -9.644531 C 8.980469 -10.058594 10.785156 -13.472656 10.308594 -14.421875 C 10.40625 -14.675781 10.34375 -14.800781 10.089844 -14.578125 C 9.898438 -14.453125 9.898438 -14.390625 9.992188 -14.328125 C 10.121094 -14.230469 10.027344 -14.167969 9.835938 -14.199219 C 9.804688 -14.230469 9.773438 -14.167969 9.804688 -14.105469 C 9.835938 -14.011719 9.710938 -13.789062 9.519531 -13.566406 C 9.328125 -13.378906 9.203125 -13.125 9.203125 -13 C 9.203125 -12.871094 9.140625 -12.808594 9.078125 -12.839844 C 9.011719 -12.871094 8.980469 -12.871094 8.980469 -12.777344 C 8.980469 -12.714844 8.855469 -12.523438 8.699219 -12.367188 C 8.539062 -12.207031 8.285156 -11.890625 8.097656 -11.671875 C 7.90625 -11.449219 7.75 -11.355469 7.75 -11.417969 C 7.75 -11.511719 7.84375 -11.703125 8 -11.828125 C 8.316406 -12.144531 8.917969 -13.0625 9.425781 -13.949219 C 9.613281 -14.328125 9.898438 -14.800781 10.058594 -15.023438 C 10.214844 -15.242188 10.308594 -15.464844 10.277344 -15.496094 C 10.183594 -15.625 9.550781 -14.738281 9.203125 -14.011719 C 9.011719 -13.664062 8.664062 -13.09375 8.382812 -12.714844 C 7.78125 -11.890625 7.273438 -10.941406 7.367188 -10.785156 C 7.402344 -10.722656 7.367188 -10.722656 7.273438 -10.753906 C 7.117188 -10.816406 6.800781 -10.308594 6.894531 -10.152344 C 6.957031 -10.089844 6.894531 -9.960938 6.800781 -9.898438 C 6.703125 -9.835938 6.640625 -9.804688 6.640625 -9.835938 C 6.640625 -9.898438 6.546875 -9.835938 6.421875 -9.679688 C 6.261719 -9.488281 6.230469 -9.394531 6.324219 -9.328125 C 6.421875 -9.296875 6.355469 -9.234375 6.199219 -9.203125 C 6.007812 -9.109375 5.789062 -8.855469 4.617188 -7.304688 C 3.605469 -5.945312 2.339844 -4.585938 1.867188 -4.363281 L 1.453125 -4.144531 L 1.390625 -4.554688 C 1.359375 -4.777344 1.359375 -5.09375 1.359375 -5.28125 C 1.421875 -5.597656 1.519531 -6.703125 1.582031 -7.75 C 1.613281 -8 1.675781 -8.414062 1.769531 -8.699219 C 1.835938 -8.949219 1.929688 -9.328125 1.929688 -9.519531 C 1.960938 -10.183594 2.972656 -13.472656 3.382812 -14.230469 C 3.480469 -14.421875 3.511719 -14.613281 3.480469 -14.644531 C 3.449219 -14.675781 3.542969 -14.894531 3.667969 -15.148438 C 3.921875 -15.65625 4.113281 -16.667969 3.953125 -16.667969 C 3.890625 -16.667969 3.921875 -16.761719 3.984375 -16.890625 C 4.078125 -17.078125 4.046875 -17.171875 3.761719 -17.457031 C 3.574219 -17.617188 3.320312 -17.773438 3.195312 -17.773438 C 3.097656 -17.773438 2.972656 -17.835938 2.878906 -17.902344 C 2.71875 -18.089844 2.023438 -17.867188 1.675781 -17.519531 C 1.390625 -17.238281 0.886719 -16.160156 0.539062 -15.210938 C 0.410156 -14.832031 0.222656 -14.328125 0.09375 -14.136719 C 0.03125 -13.914062 -0.0625 -13.664062 -0.09375 -13.566406 C -0.09375 -13.378906 -0.125 -13.285156 -0.441406 -12.113281 C -0.949219 -10.183594 -1.171875 -8.347656 -1.171875 -6.355469 C -1.171875 -4.964844 -1.171875 -4.808594 -0.886719 -4.238281 C -0.726562 -3.921875 -0.507812 -3.511719 -0.347656 -3.351562 L -0.09375 -3.066406 L -0.191406 -3.351562 C -0.253906 -3.511719 -0.222656 -3.574219 -0.125 -3.542969 C -0.0625 -3.480469 0 -3.351562 0 -3.226562 C 0 -3.132812 0.03125 -3.035156 0.0625 -3.035156 C 0.125 -3.035156 0.222656 -2.910156 0.253906 -2.78125 C 0.316406 -2.65625 0.441406 -2.5 0.539062 -2.46875 C 0.632812 -2.433594 0.824219 -2.308594 0.980469 -2.246094 C 1.136719 -2.183594 1.421875 -2.054688 1.582031 -2.023438 C 1.769531 -1.960938 2.183594 -1.960938 2.53125 -1.960938 C 3.003906 -2.023438 3.226562 -2.117188 3.636719 -2.433594 C 4.363281 -3.035156 4.492188 -3.195312 4.742188 -3.667969 Z M 5.660156 -6.894531 C 5.722656 -6.863281 5.628906 -6.738281 5.535156 -6.578125 C 5.40625 -6.421875 5.3125 -6.355469 5.3125 -6.421875 C 5.3125 -6.578125 5.597656 -6.957031 5.660156 -6.894531 Z M 0.441406 -6.261719 C 0.539062 -6.199219 0.539062 -6.136719 0.472656 -6.136719 C 0.410156 -6.136719 0.378906 -5.945312 0.410156 -5.691406 C 0.410156 -5.472656 0.378906 -5.25 0.316406 -5.1875 C 0.253906 -5.15625 0.222656 -5.25 0.191406 -5.441406 C 0.191406 -5.597656 0.191406 -6.007812 0.15625 -6.386719 C 0.15625 -6.738281 0.191406 -6.988281 0.222656 -6.957031 C 0.285156 -6.925781 0.285156 -7.117188 0.285156 -7.433594 C 0.222656 -7.96875 0.347656 -8.414062 0.441406 -8.097656 C 0.539062 -7.8125 0.539062 -7.085938 0.441406 -6.738281 C 0.378906 -6.484375 0.378906 -6.324219 0.441406 -6.261719 Z M 0.441406 -6.261719 "/></g></g></g><g fill="#393838" fill-opacity="1"><g transform="translate(223.621166, 116.161341)"><g><path d="M 12.304688 -11.988281 C 12.082031 -12.269531 12.082031 -12.304688 12.304688 -12.269531 C 12.585938 -12.207031 11.890625 -12.902344 11.605469 -13 C 11.480469 -13.03125 11.386719 -13.09375 11.386719 -13.1875 C 11.355469 -13.25 11.449219 -13.316406 11.574219 -13.285156 C 11.703125 -13.25 11.859375 -13.25 11.890625 -13.316406 C 12.019531 -13.410156 11.449219 -14.105469 11.039062 -14.296875 C 10.660156 -14.515625 8.761719 -14.738281 7.96875 -14.675781 C 7.621094 -14.675781 7.242188 -14.675781 7.019531 -14.675781 C 6.199219 -14.738281 4.777344 -14.769531 4.429688 -14.707031 C 4.207031 -14.707031 3.761719 -14.738281 3.414062 -14.832031 C 2.910156 -14.960938 2.847656 -14.992188 3.066406 -15.085938 C 3.289062 -15.179688 3.289062 -15.179688 3.097656 -15.210938 C 3.003906 -15.242188 2.625 -15.179688 2.277344 -15.054688 C 1.929688 -14.894531 1.582031 -14.800781 1.519531 -14.832031 C 1.453125 -14.863281 1.171875 -14.832031 0.917969 -14.800781 C 0.507812 -14.738281 0.347656 -14.644531 0.285156 -14.421875 C 0.222656 -14.199219 0.222656 -14.136719 0.347656 -14.199219 C 0.441406 -14.261719 0.570312 -14.230469 0.664062 -14.136719 C 0.855469 -13.914062 0.886719 -13.472656 0.695312 -13.597656 C 0.191406 -14.011719 0.125 -14.011719 0.09375 -13.726562 C 0.09375 -13.535156 0.125 -13.25 0.253906 -13.0625 C 0.347656 -12.902344 0.410156 -12.683594 0.378906 -12.617188 C 0.347656 -12.523438 0.410156 -12.367188 0.472656 -12.269531 C 0.570312 -12.144531 0.632812 -11.859375 0.664062 -11.671875 C 0.695312 -11.386719 0.789062 -11.289062 0.917969 -11.324219 C 1.042969 -11.324219 1.453125 -11.257812 1.867188 -11.195312 C 2.6875 -11.039062 3.257812 -10.972656 3.574219 -11.070312 C 3.699219 -11.101562 4.269531 -11.132812 4.839844 -11.132812 C 5.441406 -11.132812 6.230469 -11.132812 6.609375 -11.164062 C 6.988281 -11.164062 7.558594 -11.164062 7.84375 -11.164062 C 8.128906 -11.164062 8.445312 -11.257812 8.507812 -11.324219 C 8.601562 -11.449219 8.664062 -11.449219 8.730469 -11.324219 C 8.792969 -11.195312 8.886719 -11.195312 9.078125 -11.289062 C 9.203125 -11.386719 9.582031 -11.417969 9.898438 -11.386719 C 10.214844 -11.324219 10.691406 -11.324219 10.972656 -11.355469 C 11.226562 -11.386719 11.605469 -11.355469 11.765625 -11.324219 C 11.921875 -11.289062 12.175781 -11.324219 12.304688 -11.449219 C 12.460938 -11.636719 12.492188 -11.703125 12.304688 -11.988281 Z M 10.027344 -13.820312 C 9.835938 -13.851562 9.550781 -13.882812 9.363281 -13.851562 C 9.203125 -13.820312 9.046875 -13.851562 9.011719 -13.914062 C 8.949219 -14.042969 9.835938 -14.105469 10.183594 -14.042969 C 10.34375 -13.980469 10.4375 -13.914062 10.40625 -13.851562 C 10.375 -13.757812 10.214844 -13.757812 10.027344 -13.820312 Z M 10.972656 -13.695312 C 10.691406 -13.597656 10.5625 -13.632812 10.625 -13.789062 C 10.660156 -13.851562 10.785156 -13.882812 10.941406 -13.820312 C 11.132812 -13.789062 11.132812 -13.757812 10.972656 -13.695312 Z M 10.972656 -13.695312 "/></g></g></g></svg>