<svg width="42" height="54" viewBox="0 0 42 54" fill="none" xmlns="http://www.w3.org/2000/svg">
<path d="M21.1957 22.1326C23.4117 22.1362 25.579 21.4902 27.4233 20.2764C29.2676 19.0625 30.7061 17.3355 31.5566 15.3137C32.4072 13.2919 32.6316 11.0663 32.2014 8.91842C31.7713 6.77059 30.706 4.79708 29.1403 3.24762C27.5746 1.69817 25.5789 0.642418 23.4057 0.213961C21.2325 -0.214495 18.9795 0.00360128 16.9318 0.840653C14.8841 1.6777 13.1338 3.09609 11.9022 4.91632C10.6707 6.73656 10.0133 8.87683 10.0133 11.0663C10.0133 13.9982 11.1909 16.8102 13.2874 18.885C15.384 20.9598 18.2283 22.1278 21.1957 22.1326ZM21.1957 3.61679C22.6921 3.61323 24.1559 4.04862 25.4016 4.86779C26.6473 5.68696 27.6188 6.85304 28.1932 8.21828C28.7675 9.58352 28.9187 11.0865 28.6276 12.5367C28.3366 13.9869 27.6164 15.3192 26.5582 16.3646C25.5001 17.41 24.1517 18.1216 22.6839 18.4092C21.2161 18.6967 19.6949 18.5473 18.3131 17.9799C16.9313 17.4125 15.7511 16.4526 14.922 15.2218C14.0929 13.991 13.6522 12.5448 13.6558 11.0663C13.6606 9.09203 14.4565 7.19997 15.8695 5.80395C17.2824 4.40792 19.1974 3.62154 21.1957 3.61679ZM41.9213 46.4605C39.7358 52.0207 29.7919 54 21.1957 54C12.5995 54 2.65555 52.0207 0.470074 46.4605C-0.695514 43.4915 0.342588 39.083 3.18371 34.9623C5.16 32.015 7.83246 29.587 10.9705 27.8879C14.1085 26.1888 17.6178 25.2696 21.1957 25.2096C25.4183 25.3009 29.5277 26.5757 33.0454 28.8853C36.5632 31.1949 39.3444 34.4443 41.0653 38.2552C41.1882 38.4735 41.2637 38.7147 41.2871 38.9634C41.3105 39.2121 41.2812 39.4628 41.2012 39.6997C41.1211 39.9366 40.992 40.1545 40.8221 40.3394C40.6522 40.5243 40.4452 40.6723 40.2142 40.7738C39.9833 40.8754 39.7334 40.9283 39.4806 40.9293C39.2279 40.9302 38.9776 40.8792 38.7459 40.7794C38.5142 40.6796 38.306 40.5332 38.1347 40.3496C37.9633 40.1659 37.8325 39.9491 37.7507 39.7128C36.2916 36.5531 33.9691 33.8584 31.0444 31.932C28.1197 30.0056 24.7088 28.9238 21.1957 28.8084C18.2122 28.8681 15.2884 29.6448 12.6769 31.0713C10.0654 32.4978 7.84475 34.5311 6.20695 36.9957C3.7665 40.5045 3.27477 43.6894 3.85756 45.1649C5.05957 48.2059 12.3445 50.4012 21.1957 50.4012C30.0469 50.4012 37.3318 48.2059 38.5338 45.1649C38.731 44.7548 39.078 44.4334 39.505 44.2654C39.932 44.0974 40.4076 44.0952 40.8362 44.2591C41.2649 44.4231 41.6149 44.7411 41.8162 45.1494C42.0174 45.5576 42.0549 46.026 41.9213 46.4605Z" fill="#02C3A4"/>
</svg>
