<svg width="67" height="52" viewBox="0 0 67 52" fill="none" xmlns="http://www.w3.org/2000/svg">
<path d="M66.8544 11.7234L59.062 35.9613C58.4793 37.6874 56.95 38.8382 55.1293 38.8382H25.0522C23.3043 38.8382 21.6293 37.7593 21.0467 36.177L9.54022 5.7538H2.91304C1.31087 5.7538 0 4.4592 0 2.8769C0 1.29461 1.31087 0 2.91304 0H11.5793C12.8174 0 13.9098 0.791148 14.3467 1.94191L26.2174 33.0844H53.8913L60.0815 13.6653H25.7804C24.1783 13.6653 22.8674 12.3707 22.8674 10.7884C22.8674 9.20609 24.1783 7.91148 25.7804 7.91148H64.087C65.0337 7.91148 65.9076 8.41494 66.4174 9.13416C67 9.85339 67.1457 10.8603 66.8544 11.7234ZM26.5087 42.6501C25.2707 42.6501 24.0326 43.1535 23.1587 44.0166C22.2848 44.8797 21.775 46.1024 21.775 47.325C21.775 48.5477 22.2848 49.7704 23.1587 50.6335C24.0326 51.4965 25.2707 52 26.5087 52C27.7467 52 28.9848 51.4965 29.8587 50.6335C30.7326 49.7704 31.2424 48.5477 31.2424 47.325C31.2424 46.1024 30.7326 44.8797 29.8587 44.0166C28.9848 43.1535 27.7467 42.6501 26.5087 42.6501ZM52.6533 42.6501C51.4152 42.6501 50.1772 43.1535 49.3033 44.0166C48.4293 44.8797 47.9196 46.1024 47.9196 47.325C47.9196 48.5477 48.4293 49.7704 49.3033 50.6335C50.1772 51.4965 51.4152 52 52.6533 52C53.8913 52 55.1293 51.4965 56.0033 50.6335C56.8772 49.7704 57.387 48.5477 57.387 47.325C57.387 46.1024 56.8772 44.8797 56.0033 44.0166C55.1293 43.1535 53.8913 42.6501 52.6533 42.6501Z" fill="#02C3A4"/>
</svg>
