<svg width="59" height="54" viewBox="0 0 59 54" fill="none" xmlns="http://www.w3.org/2000/svg">
<path d="M16.225 0C21.3875 0 26.2547 2.35434 29.5 6.18005C32.7454 2.35434 37.6125 0 42.775 0C51.9203 0 59 7.06233 59 16.1852C59 27.3672 48.9703 36.3435 33.7781 50.1735L29.5 54L25.2219 50.1735C10.0299 36.3434 0 27.367 0 16.1852C0 7.06233 7.07971 0 16.225 0ZM27.6795 46.3018L28.2779 46.8464L29.5 47.9395L30.722 46.8465L31.3196 46.3025C38.4703 39.7941 44.6458 34.173 48.7283 29.1471C52.6934 24.2655 54.4615 20.268 54.4615 16.1852C54.4615 12.9698 53.2671 10.0074 51.0981 7.84392C48.9364 5.68758 45.9806 4.5 42.775 4.5C39.0685 4.5 35.4043 6.21098 32.9733 9.07664L29.5 13.1711L26.0268 9.07664C23.5957 6.21098 19.9316 4.5 16.225 4.5C13.0193 4.5 10.0636 5.68758 7.90174 7.84378C5.73293 10.0074 4.53846 12.9697 4.53846 16.1852C4.53846 20.268 6.30661 24.2654 10.2714 29.1468C14.3537 34.1727 20.529 39.7934 27.6795 46.3018Z" fill="#02C3A4"/>
</svg>
