<svg width="52" height="52" viewBox="0 0 52 52" fill="none" xmlns="http://www.w3.org/2000/svg">
<path d="M40.1738 20.1081C40.1816 15.5712 38.6513 11.1654 35.8322 7.60906C33.0131 4.05273 29.0717 1.55564 24.6504 0.524909C20.2291 -0.505821 15.5888 -0.00939429 11.4861 1.93325C7.38334 3.8759 4.06012 7.15018 2.05824 11.2223C0.0563578 15.2943 -0.506101 19.924 0.462563 24.3565C1.43123 28.789 3.87388 32.7629 7.39227 35.6302C10.9107 38.4975 15.2973 40.0891 19.8369 40.1456C24.3765 40.2021 28.8014 38.72 32.3901 35.9412L48.4597 52L52 48.462L35.9305 32.4032C38.6711 28.889 40.1639 24.5635 40.1738 20.1081ZM20.0869 35.1633C17.1073 35.1633 14.1946 34.2803 11.7171 32.6261C9.23968 30.9718 7.30874 28.6205 6.16849 25.8695C5.02824 23.1185 4.7299 20.0914 5.3112 17.171C5.89249 14.2506 7.32731 11.568 9.43421 9.46253C11.5411 7.35702 14.2255 5.92316 17.1478 5.34225C20.0702 4.76134 23.0993 5.05949 25.8521 6.19898C28.6049 7.33847 30.9578 9.26813 32.6132 11.7439C34.2685 14.2197 35.1521 17.1305 35.1521 20.1081C35.1521 24.101 33.5649 27.9304 30.7396 30.7538C27.9143 33.5771 24.0824 35.1633 20.0869 35.1633Z" fill="#E1C171"/>
</svg>
