<svg width="191" height="65" viewBox="0 0 191 65" fill="none" xmlns="http://www.w3.org/2000/svg">
<rect width="191" height="65" rx="32.5" fill="#02C3A4"/>
<path d="M52.4171 40.775C51.7504 40.775 51.0504 40.725 50.3171 40.625C49.6004 40.5417 48.9171 40.4083 48.2671 40.225C47.6171 40.0417 47.0338 39.825 46.5171 39.575C46.0671 39.3583 45.7504 39.075 45.5671 38.725C45.3838 38.3583 45.3171 37.975 45.3671 37.575C45.4171 37.175 45.5588 36.825 45.7921 36.525C46.0254 36.2083 46.3338 36 46.7171 35.9C47.1004 35.7833 47.5338 35.8333 48.0171 36.05C48.6504 36.35 49.3671 36.5833 50.1671 36.75C50.9671 36.9167 51.7171 37 52.4171 37C53.5171 37 54.2838 36.8583 54.7171 36.575C55.1671 36.275 55.3921 35.9083 55.3921 35.475C55.3921 35.0917 55.2338 34.7833 54.9171 34.55C54.6171 34.3167 54.0754 34.1167 53.2921 33.95L50.3671 33.325C48.7671 32.9917 47.5754 32.4083 46.7921 31.575C46.0088 30.7417 45.6171 29.6667 45.6171 28.35C45.6171 27.4833 45.7921 26.7 46.1421 26C46.5088 25.2833 47.0171 24.675 47.6671 24.175C48.3338 23.675 49.1171 23.2917 50.0171 23.025C50.9338 22.7417 51.9504 22.6 53.0671 22.6C53.9338 22.6 54.8088 22.7 55.6921 22.9C56.5921 23.0833 57.3671 23.3667 58.0171 23.75C58.4004 23.95 58.6754 24.225 58.8421 24.575C59.0088 24.925 59.0754 25.2917 59.0421 25.675C59.0088 26.0417 58.8754 26.3667 58.6421 26.65C58.4254 26.9333 58.1254 27.125 57.7421 27.225C57.3754 27.3083 56.9338 27.2417 56.4171 27.025C55.9338 26.8083 55.3838 26.65 54.7671 26.55C54.1671 26.4333 53.5838 26.375 53.0171 26.375C52.4004 26.375 51.8754 26.45 51.4421 26.6C51.0088 26.7333 50.6754 26.9333 50.4421 27.2C50.2254 27.4667 50.1171 27.775 50.1171 28.125C50.1171 28.475 50.2588 28.775 50.5421 29.025C50.8421 29.2583 51.3838 29.4583 52.1671 29.625L55.0671 30.25C56.6838 30.6 57.8921 31.175 58.6921 31.975C59.4921 32.775 59.8921 33.8167 59.8921 35.1C59.8921 35.9667 59.7171 36.75 59.3671 37.45C59.0171 38.15 58.5171 38.75 57.8671 39.25C57.2171 39.7333 56.4338 40.1083 55.5171 40.375C54.6004 40.6417 53.5671 40.775 52.4171 40.775ZM64.5513 40.5C63.7679 40.5 63.1679 40.3 62.7513 39.9C62.3513 39.4833 62.1513 38.8917 62.1513 38.125V25.25C62.1513 24.4833 62.3513 23.9 62.7513 23.5C63.1679 23.0833 63.7679 22.875 64.5513 22.875H73.0263C73.6263 22.875 74.0763 23.025 74.3763 23.325C74.6763 23.625 74.8263 24.0583 74.8263 24.625C74.8263 25.2083 74.6763 25.6583 74.3763 25.975C74.0763 26.275 73.6263 26.425 73.0263 26.425H66.5513V29.775H72.4763C73.0596 29.775 73.5013 29.925 73.8013 30.225C74.1179 30.525 74.2763 30.9667 74.2763 31.55C74.2763 32.1333 74.1179 32.575 73.8013 32.875C73.5013 33.175 73.0596 33.325 72.4763 33.325H66.5513V36.95H73.0263C73.6263 36.95 74.0763 37.1083 74.3763 37.425C74.6763 37.725 74.8263 38.1583 74.8263 38.725C74.8263 39.3083 74.6763 39.75 74.3763 40.05C74.0763 40.35 73.6263 40.5 73.0263 40.5H64.5513ZM79.9077 40.5C79.1244 40.5 78.5244 40.3 78.1077 39.9C77.7077 39.4833 77.5077 38.8917 77.5077 38.125V25.25C77.5077 24.4833 77.7077 23.9 78.1077 23.5C78.5244 23.0833 79.1244 22.875 79.9077 22.875H88.3827C88.9827 22.875 89.4327 23.025 89.7327 23.325C90.0327 23.625 90.1827 24.0583 90.1827 24.625C90.1827 25.2083 90.0327 25.6583 89.7327 25.975C89.4327 26.275 88.9827 26.425 88.3827 26.425H81.9077V29.775H87.8327C88.416 29.775 88.8577 29.925 89.1577 30.225C89.4744 30.525 89.6327 30.9667 89.6327 31.55C89.6327 32.1333 89.4744 32.575 89.1577 32.875C88.8577 33.175 88.416 33.325 87.8327 33.325H81.9077V36.95H88.3827C88.9827 36.95 89.4327 37.1083 89.7327 37.425C90.0327 37.725 90.1827 38.1583 90.1827 38.725C90.1827 39.3083 90.0327 39.75 89.7327 40.05C89.4327 40.35 88.9827 40.5 88.3827 40.5H79.9077ZM100.842 40.725C100.326 40.725 99.8925 40.6083 99.5425 40.375C99.1925 40.125 98.9758 39.7917 98.8925 39.375C98.8091 38.9417 98.8841 38.4583 99.1175 37.925L105.342 24.525C105.642 23.875 106.009 23.4 106.442 23.1C106.892 22.8 107.401 22.65 107.967 22.65C108.534 22.65 109.026 22.8 109.442 23.1C109.876 23.4 110.251 23.875 110.567 24.525L116.792 37.925C117.059 38.4583 117.151 38.9417 117.067 39.375C117.001 39.8083 116.792 40.1417 116.442 40.375C116.109 40.6083 115.692 40.725 115.192 40.725C114.526 40.725 114.009 40.575 113.642 40.275C113.292 39.975 112.976 39.4917 112.692 38.825L111.342 35.65L113.092 36.925H102.792L104.567 35.65L103.217 38.825C102.917 39.4917 102.609 39.975 102.292 40.275C101.976 40.575 101.492 40.725 100.842 40.725ZM107.917 27.675L105.017 34.6L104.317 33.4H111.592L110.892 34.6L107.967 27.675H107.917ZM121.41 40.5C120.677 40.5 120.102 40.3 119.685 39.9C119.285 39.4833 119.085 38.9083 119.085 38.175V25.175C119.085 24.425 119.285 23.85 119.685 23.45C120.085 23.05 120.652 22.85 121.385 22.85C122.135 22.85 122.702 23.05 123.085 23.45C123.485 23.85 123.685 24.425 123.685 25.175V36.675H129.785C130.418 36.675 130.902 36.8417 131.235 37.175C131.585 37.4917 131.76 37.9583 131.76 38.575C131.76 39.1917 131.585 39.6667 131.235 40C130.902 40.3333 130.418 40.5 129.785 40.5H121.41ZM136.034 40.5C135.301 40.5 134.726 40.3 134.309 39.9C133.909 39.4833 133.709 38.9083 133.709 38.175V25.175C133.709 24.425 133.909 23.85 134.309 23.45C134.709 23.05 135.276 22.85 136.009 22.85C136.759 22.85 137.326 23.05 137.709 23.45C138.109 23.85 138.309 24.425 138.309 25.175V36.675H144.409C145.042 36.675 145.526 36.8417 145.859 37.175C146.209 37.4917 146.384 37.9583 146.384 38.575C146.384 39.1917 146.209 39.6667 145.859 40C145.526 40.3333 145.042 40.5 144.409 40.5H136.034Z" fill="#F3F3F3"/>
</svg>
