<svg width="148" height="63" viewBox="0 0 148 63" fill="none" xmlns="http://www.w3.org/2000/svg">
<g clip-path="url(#clip0_24_436)">
<rect width="148" height="63" rx="4" fill="#02C3A4"/>
<path d="M49.0529 26.742C48.4662 26.742 47.8502 26.698 47.2049 26.61C46.5742 26.5367 45.9729 26.4193 45.4009 26.258C44.8289 26.0967 44.3155 25.906 43.8609 25.686C43.4649 25.4953 43.1862 25.246 43.0249 24.938C42.8635 24.6153 42.8049 24.278 42.8489 23.926C42.8929 23.574 43.0175 23.266 43.2229 23.002C43.4282 22.7233 43.6995 22.54 44.0369 22.452C44.3742 22.3493 44.7555 22.3933 45.1809 22.584C45.7382 22.848 46.3689 23.0533 47.0729 23.2C47.7769 23.3467 48.4369 23.42 49.0529 23.42C50.0209 23.42 50.6955 23.2953 51.0769 23.046C51.4729 22.782 51.6709 22.4593 51.6709 22.078C51.6709 21.7407 51.5315 21.4693 51.2529 21.264C50.9889 21.0587 50.5122 20.8827 49.8229 20.736L47.2489 20.186C45.8409 19.8927 44.7922 19.3793 44.1029 18.646C43.4135 17.9127 43.0689 16.9667 43.0689 15.808C43.0689 15.0453 43.2229 14.356 43.5309 13.74C43.8535 13.1093 44.3009 12.574 44.8729 12.134C45.4595 11.694 46.1489 11.3567 46.9409 11.122C47.7475 10.8727 48.6422 10.748 49.6249 10.748C50.3875 10.748 51.1575 10.836 51.9349 11.012C52.7269 11.1733 53.4089 11.4227 53.9809 11.76C54.3182 11.936 54.5602 12.178 54.7069 12.486C54.8535 12.794 54.9122 13.1167 54.8829 13.454C54.8535 13.7767 54.7362 14.0627 54.5309 14.312C54.3402 14.5613 54.0762 14.73 53.7389 14.818C53.4162 14.8913 53.0275 14.8327 52.5729 14.642C52.1475 14.4513 51.6635 14.312 51.1209 14.224C50.5929 14.1213 50.0795 14.07 49.5809 14.07C49.0382 14.07 48.5762 14.136 48.1949 14.268C47.8135 14.3853 47.5202 14.5613 47.3149 14.796C47.1242 15.0307 47.0289 15.302 47.0289 15.61C47.0289 15.918 47.1535 16.182 47.4029 16.402C47.6669 16.6073 48.1435 16.7833 48.8329 16.93L51.3849 17.48C52.8075 17.788 53.8709 18.294 54.5749 18.998C55.2789 19.702 55.6309 20.6187 55.6309 21.748C55.6309 22.5107 55.4769 23.2 55.1689 23.816C54.8609 24.432 54.4209 24.96 53.8489 25.4C53.2769 25.8253 52.5875 26.1553 51.7809 26.39C50.9742 26.6247 50.0649 26.742 49.0529 26.742ZM59.6429 26.698C58.9976 26.698 58.4989 26.522 58.1469 26.17C57.7949 25.8033 57.6189 25.29 57.6189 24.63V12.86C57.6189 12.1853 57.7949 11.672 58.1469 11.32C58.4989 10.968 58.9976 10.792 59.6429 10.792C60.3029 10.792 60.8016 10.968 61.1389 11.32C61.4909 11.672 61.6669 12.1853 61.6669 12.86V16.974H68.0689V12.86C68.0689 12.1853 68.2376 11.672 68.5749 11.32C68.9269 10.968 69.4329 10.792 70.0929 10.792C70.7383 10.792 71.2296 10.968 71.5669 11.32C71.9189 11.672 72.0949 12.1853 72.0949 12.86V24.63C72.0949 25.29 71.9189 25.8033 71.5669 26.17C71.2296 26.522 70.7383 26.698 70.0929 26.698C69.4329 26.698 68.9269 26.522 68.5749 26.17C68.2376 25.8033 68.0689 25.29 68.0689 24.63V20.296H61.6669V24.63C61.6669 25.29 61.4983 25.8033 61.1609 26.17C60.8236 26.522 60.3176 26.698 59.6429 26.698ZM82.3939 26.742C80.8245 26.742 79.4459 26.412 78.2579 25.752C77.0699 25.0773 76.1459 24.1387 75.4859 22.936C74.8405 21.7333 74.5179 20.3327 74.5179 18.734C74.5179 17.5313 74.7012 16.4387 75.0679 15.456C75.4492 14.4733 75.9845 13.63 76.6739 12.926C77.3779 12.222 78.2139 11.6867 79.1819 11.32C80.1499 10.9387 81.2205 10.748 82.3939 10.748C83.9632 10.748 85.3345 11.078 86.5079 11.738C87.6959 12.398 88.6199 13.3293 89.2799 14.532C89.9399 15.72 90.2699 17.1207 90.2699 18.734C90.2699 19.9367 90.0792 21.0293 89.6979 22.012C89.3312 22.9947 88.7959 23.8453 88.0919 24.564C87.4025 25.268 86.5739 25.8107 85.6059 26.192C84.6379 26.5587 83.5672 26.742 82.3939 26.742ZM82.3939 23.354C83.1712 23.354 83.8312 23.1707 84.3739 22.804C84.9165 22.4373 85.3345 21.9093 85.6279 21.22C85.9212 20.5307 86.0679 19.702 86.0679 18.734C86.0679 17.282 85.7452 16.1527 85.0999 15.346C84.4545 14.5393 83.5525 14.136 82.3939 14.136C81.6312 14.136 80.9712 14.3193 80.4139 14.686C79.8712 15.038 79.4532 15.5587 79.1599 16.248C78.8665 16.9227 78.7199 17.7513 78.7199 18.734C78.7199 20.186 79.0425 21.3227 79.6879 22.144C80.3332 22.9507 81.2352 23.354 82.3939 23.354ZM94.684 26.698C94.0386 26.698 93.54 26.522 93.188 26.17C92.836 25.8033 92.66 25.2973 92.66 24.652V13.036C92.66 12.376 92.836 11.87 93.188 11.518C93.5546 11.166 94.0606 10.99 94.706 10.99H100.118C101.878 10.99 103.235 11.4447 104.188 12.354C105.156 13.2487 105.64 14.488 105.64 16.072C105.64 17.656 105.156 18.9027 104.188 19.812C103.235 20.7067 101.878 21.154 100.118 21.154H96.708V24.652C96.708 25.2973 96.5393 25.8033 96.202 26.17C95.8646 26.522 95.3586 26.698 94.684 26.698ZM96.708 18.052H99.414C100.177 18.052 100.763 17.8907 101.174 17.568C101.585 17.2307 101.79 16.732 101.79 16.072C101.79 15.3973 101.585 14.8987 101.174 14.576C100.763 14.2533 100.177 14.092 99.414 14.092H96.708V18.052ZM47.8879 51.698C47.2719 51.698 46.8026 51.5367 46.4799 51.214C46.1572 50.8913 45.9959 50.4147 45.9959 49.784V37.794C45.9959 37.1487 46.1572 36.6573 46.4799 36.32C46.8026 35.968 47.2279 35.792 47.7559 35.792C48.2252 35.792 48.5919 35.88 48.8559 36.056C49.1199 36.232 49.4132 36.5253 49.7359 36.936L56.7099 45.648H56.0939V37.684C56.0939 37.068 56.2479 36.5987 56.5559 36.276C56.8786 35.9533 57.3479 35.792 57.9639 35.792C58.5799 35.792 59.0419 35.9533 59.3499 36.276C59.6726 36.5987 59.8339 37.068 59.8339 37.684V49.872C59.8339 50.4293 59.6872 50.8767 59.3939 51.214C59.1006 51.5367 58.7046 51.698 58.2059 51.698C57.7072 51.698 57.3112 51.61 57.0179 51.434C56.7392 51.2433 56.4386 50.95 56.1159 50.554L49.1419 41.82H49.7579V49.784C49.7579 50.4147 49.5966 50.8913 49.2739 51.214C48.9659 51.5367 48.5039 51.698 47.8879 51.698ZM70.1478 51.742C68.5784 51.742 67.1998 51.412 66.0118 50.752C64.8238 50.0773 63.8998 49.1387 63.2398 47.936C62.5944 46.7333 62.2718 45.3327 62.2718 43.734C62.2718 42.5313 62.4551 41.4387 62.8218 40.456C63.2031 39.4733 63.7384 38.63 64.4278 37.926C65.1318 37.222 65.9678 36.6867 66.9358 36.32C67.9038 35.9387 68.9744 35.748 70.1478 35.748C71.7171 35.748 73.0884 36.078 74.2618 36.738C75.4498 37.398 76.3738 38.3293 77.0338 39.532C77.6938 40.72 78.0238 42.1207 78.0238 43.734C78.0238 44.9367 77.8331 46.0293 77.4518 47.012C77.0851 47.9947 76.5498 48.8453 75.8458 49.564C75.1564 50.268 74.3278 50.8107 73.3598 51.192C72.3918 51.5587 71.3211 51.742 70.1478 51.742ZM70.1478 48.354C70.9251 48.354 71.5851 48.1707 72.1278 47.804C72.6704 47.4373 73.0884 46.9093 73.3818 46.22C73.6751 45.5307 73.8218 44.702 73.8218 43.734C73.8218 42.282 73.4991 41.1527 72.8538 40.346C72.2084 39.5393 71.3064 39.136 70.1478 39.136C69.3851 39.136 68.7251 39.3193 68.1678 39.686C67.6251 40.038 67.2071 40.5587 66.9138 41.248C66.6204 41.9227 66.4738 42.7513 66.4738 43.734C66.4738 45.186 66.7964 46.3227 67.4418 47.144C68.0871 47.9507 68.9891 48.354 70.1478 48.354ZM86.0337 51.698C85.491 51.698 85.051 51.5733 84.7137 51.324C84.3763 51.06 84.1123 50.6567 83.9217 50.114L79.6317 38.168C79.397 37.508 79.4337 36.9507 79.7417 36.496C80.0643 36.0267 80.629 35.792 81.4357 35.792C81.9783 35.792 82.4037 35.924 82.7117 36.188C83.0197 36.4373 83.2617 36.8333 83.4377 37.376L86.7157 47.21H85.6817L89.2017 37.376C89.407 36.8333 89.6637 36.4373 89.9717 36.188C90.2797 35.924 90.6757 35.792 91.1597 35.792C91.6437 35.792 92.0323 35.924 92.3257 36.188C92.619 36.4373 92.861 36.8407 93.0517 37.398L96.3517 47.21H95.4717L98.8377 37.376C99.0137 36.8333 99.2483 36.4373 99.5417 36.188C99.8497 35.924 100.275 35.792 100.818 35.792C101.492 35.792 101.984 36.0267 102.292 36.496C102.614 36.9507 102.651 37.508 102.402 38.168L98.0677 50.136C97.877 50.664 97.613 51.06 97.2757 51.324C96.953 51.5733 96.5203 51.698 95.9777 51.698C95.4203 51.698 94.973 51.5733 94.6357 51.324C94.313 51.06 94.0563 50.6567 93.8657 50.114L90.7637 41.402H91.3137L88.1457 50.136C87.9403 50.664 87.6763 51.06 87.3537 51.324C87.031 51.5733 86.591 51.698 86.0337 51.698Z" fill="#F3F3F3"/>
</g>
<defs>
<clipPath id="clip0_24_436">
<rect width="148" height="63" rx="4" fill="white"/>
</clipPath>
</defs>
</svg>
