<svg width="23" height="22" viewBox="0 0 23 22" fill="none" xmlns="http://www.w3.org/2000/svg">
<path d="M11.5 0C5.15868 0 0 4.9345 0 10.9998C0 17.0653 5.15868 22 11.5 22C17.8409 22 23 17.0653 23 10.9998C23 4.9345 17.8409 0 11.5 0ZM14.7502 6.94396C14.7502 6.99604 14.7286 7.046 14.6901 7.08283C14.6516 7.11966 14.5994 7.14035 14.5449 7.14035L13.2376 7.14113C12.3751 7.14113 12.2174 7.46243 12.2174 8.0952V9.40787H14.4595C14.5184 9.40787 14.5747 9.43222 14.6135 9.47464C14.6523 9.51706 14.6704 9.57342 14.6632 9.62939L14.3439 11.9926C14.3375 12.0399 14.3133 12.0834 14.2758 12.1149C14.2383 12.1464 14.1901 12.1638 14.1402 12.1638H12.2174V18.0317C12.2174 18.0838 12.1958 18.1338 12.1573 18.1706C12.1187 18.2074 12.0665 18.2281 12.0121 18.2281H9.46117C9.40671 18.2281 9.35449 18.2074 9.31598 18.1706C9.27748 18.1338 9.25585 18.0838 9.25585 18.0317V12.1638H7.32686C7.27241 12.1638 7.22018 12.1431 7.18168 12.1063C7.14317 12.0695 7.12154 12.0195 7.12154 11.9674V9.60426C7.12154 9.55217 7.14317 9.50222 7.18168 9.46539C7.22018 9.42856 7.27241 9.40787 7.32686 9.40787H9.25585V7.8613C9.25585 5.81295 10.5518 4.54073 12.6385 4.54073C13.5355 4.54073 14.3283 4.60456 14.5718 4.63539C14.6212 4.64163 14.6665 4.66481 14.6993 4.70061C14.7321 4.73641 14.7502 4.7824 14.7502 4.83002V6.94396Z" fill="#40374B"/>
</svg>
