<svg width="25" height="24" viewBox="0 0 25 24" fill="none" xmlns="http://www.w3.org/2000/svg">
<path d="M7.6648 0.800049C3.93444 0.800049 0.900024 3.73254 0.900024 7.3352V16.6685C0.900024 20.2703 3.93725 23.2 7.66858 23.2H17.3352C21.0656 23.2 24.1 20.2676 24.1 16.6649V7.33156C24.1 3.72983 21.0628 0.800049 17.3315 0.800049H7.6648ZM19.2667 4.53338C19.8003 4.53338 20.2334 4.95151 20.2334 5.46671C20.2334 5.98191 19.8003 6.40005 19.2667 6.40005C18.7331 6.40005 18.3 5.98191 18.3 5.46671C18.3 4.95151 18.7331 4.53338 19.2667 4.53338ZM12.5 6.40005C15.6987 6.40005 18.3 8.91165 18.3 12C18.3 15.0884 15.6987 17.6 12.5 17.6C9.30132 17.6 6.70002 15.0884 6.70002 12C6.70002 8.91165 9.30132 6.40005 12.5 6.40005ZM12.5 8.26671C11.4745 8.26671 10.491 8.66005 9.76588 9.36018C9.04074 10.0603 8.63336 11.0099 8.63336 12C8.63336 12.9902 9.04074 13.9398 9.76588 14.6399C10.491 15.34 11.4745 15.7334 12.5 15.7334C13.5255 15.7334 14.509 15.34 15.2342 14.6399C15.9593 13.9398 16.3667 12.9902 16.3667 12C16.3667 11.0099 15.9593 10.0603 15.2342 9.36018C14.509 8.66005 13.5255 8.26671 12.5 8.26671Z" fill="#40374B"/>
</svg>
