<svg width="23" height="23" viewBox="0 0 23 23" fill="none" xmlns="http://www.w3.org/2000/svg">
<path d="M11.5 0C5.15894 0 0 5.15894 0 11.5C0 16.4421 3.13379 20.6651 7.51819 22.2885C7.39191 21.1627 7.41171 19.319 7.62009 18.4263C7.81522 17.5878 8.88071 13.0827 8.88071 13.0827C8.88071 13.0827 8.55905 12.4386 8.55905 11.4872C8.55905 9.9921 9.42526 8.87659 10.504 8.87659C11.4214 8.87659 11.8639 9.5654 11.8639 10.3907C11.8639 11.3135 11.2771 12.692 10.9732 13.9696C10.7198 15.0401 11.5099 15.9129 12.5651 15.9129C14.4757 15.9129 15.9443 13.8981 15.9443 10.9902C15.9443 8.41641 14.0953 6.61661 11.4545 6.61661C8.39615 6.61661 6.60089 8.91089 6.60089 11.2821C6.60089 12.2058 6.95648 13.1964 7.40094 13.7356C7.48859 13.8423 7.5014 13.9353 7.47537 14.0436C7.39392 14.3831 7.21283 15.1133 7.17685 15.2629C7.13013 15.4601 7.02097 15.5011 6.81754 15.4064C5.47464 14.7812 4.63528 12.8185 4.63528 11.2416C4.63528 7.8508 7.09869 4.73618 11.7386 4.73618C15.468 4.73618 18.3659 7.3931 18.3659 10.9451C18.3659 14.6501 16.0295 17.6316 12.7875 17.6316C11.6981 17.6316 10.6743 17.0656 10.3241 16.397C10.3241 16.397 9.78497 18.4495 9.6539 18.9526C9.42767 19.8228 8.45926 21.6256 7.97311 22.4445C9.08524 22.8037 10.2699 23 11.5 23C17.8413 23 23 17.8413 23 11.5C23 5.15894 17.8413 0 11.5 0Z" fill="#40374B"/>
</svg>
