<svg width="27" height="26" viewBox="0 0 27 26" fill="none" xmlns="http://www.w3.org/2000/svg">
<path d="M10.2458 5.75163L10.2494 5.75304C10.323 5.43925 10.5908 5.20833 10.9258 5.20833H20.4685C20.4805 5.20833 20.4926 5.20338 20.5046 5.20408C20.3013 1.81896 17.4616 0.25 14.9562 0.25H5.41358C5.07783 0.25 4.81008 0.487292 4.73713 0.800375L4.73358 0.798958L0.562209 19.9509L0.571418 19.9516C0.561501 19.9969 0.543793 20.0401 0.543793 20.089C0.543793 20.4807 0.860418 20.791 1.25213 20.791H6.96908L10.2458 5.75163Z" fill="#1565C0"/>
<path d="M20.5046 5.20408C20.5422 5.82458 20.5011 6.49963 20.3424 7.2455C19.435 11.492 16.1548 13.702 12.101 13.702C12.101 13.702 9.64304 13.702 9.04592 13.702C8.67688 13.702 8.50263 13.9187 8.42258 14.0845L7.19008 19.7858L6.97404 20.798H6.96979L6.07517 24.9035L6.08438 24.9043C6.07446 24.9496 6.05675 24.9928 6.05675 25.0417C6.05675 25.4334 6.37338 25.75 6.76508 25.75H11.9593L11.9685 25.7429C12.3028 25.738 12.5685 25.4992 12.6379 25.1847L12.6506 25.1741L13.9341 19.2128C13.9341 19.2128 14.0234 18.644 14.6212 18.644C15.219 18.644 17.5806 18.644 17.5806 18.644C21.6344 18.644 24.948 16.4439 25.8561 12.1967C26.8775 7.40842 23.4619 5.22179 20.5046 5.20408Z" fill="#039BE5"/>
<path d="M10.9258 5.20833C10.5908 5.20833 10.323 5.43925 10.2494 5.75304L10.2458 5.75163L8.42188 14.0852C8.50192 13.9194 8.67617 13.7027 9.04521 13.7027C9.64304 13.7027 12.045 13.7027 12.045 13.7027C16.0988 13.7027 19.4343 11.4927 20.3417 7.24621C20.5011 6.50033 20.5422 5.82458 20.5046 5.20408C20.4933 5.20267 20.4798 5.20833 20.4685 5.20833H10.9258Z" fill="#283593"/>
</svg>
