<svg width="24" height="25" viewBox="0 0 24 25" fill="none" xmlns="http://www.w3.org/2000/svg">
<path d="M12 0.899902C5.373 0.899902 0 6.0938 0 12.4999C0 18.906 5.373 24.0999 12 24.0999C18.627 24.0999 24 18.906 24 12.4999C24 6.0938 18.627 0.899902 12 0.899902ZM18.464 10.1171C18.47 10.2456 18.473 10.3732 18.473 10.5008C18.473 14.4332 15.378 18.965 9.717 18.965C7.978 18.965 6.361 18.4729 5 17.6281C5.241 17.6561 5.486 17.6687 5.735 17.6687C7.178 17.6687 8.504 17.194 9.556 16.3946C8.209 16.3704 7.072 15.5101 6.681 14.3288C6.869 14.3636 7.062 14.382 7.26 14.382C7.541 14.382 7.814 14.3453 8.071 14.2776C6.663 14.005 5.602 12.8025 5.602 11.3612C5.602 11.3486 5.602 11.336 5.602 11.3235C6.017 11.5468 6.491 11.6802 6.996 11.6956C6.171 11.163 5.627 10.2514 5.627 9.22C5.627 8.67384 5.778 8.16247 6.043 7.72457C7.561 9.5245 9.829 10.7096 12.386 10.8334C12.334 10.6159 12.307 10.3887 12.307 10.1557C12.307 8.51337 13.685 7.18034 15.384 7.18034C16.269 7.18034 17.069 7.54187 17.63 8.11994C18.331 7.98557 18.99 7.73907 19.585 7.39784C19.355 8.09287 18.867 8.6748 18.231 9.04407C18.853 8.97254 19.446 8.81304 19.999 8.5762C19.588 9.1736 19.067 9.69657 18.464 10.1171Z" fill="#40374B"/>
</svg>
