<svg width="42" height="28" viewBox="0 0 42 28" fill="none" xmlns="http://www.w3.org/2000/svg">
<path d="M8.74999 0.875H18.8869C20.3017 0.875 21.182 2.06675 20.8521 3.53412L16.1324 24.4702C15.799 25.9324 14.3824 27.125 12.9666 27.125H2.83062C1.63274 27.1241 0.816369 26.2675 0.796244 25.116C0.792744 24.9086 0.814619 24.6925 0.865369 24.4694L5.58687 3.53325C5.91674 2.06675 7.33337 0.875 8.74999 0.875Z" fill="url(#paint0_linear_35_730)"/>
<path d="M17.9375 0.875H29.7237C31.1736 0.875 30.52 2.06675 30.1787 3.53412L25.3426 24.4711C25.0031 25.9324 25.109 27.125 23.6556 27.125H11.7075C10.4912 27.125 9.66349 26.2894 9.62587 25.1597C9.61887 24.9401 9.64162 24.7082 9.69674 24.4702L14.6939 3.53325C15.0386 2.06675 16.3249 0.875 17.7765 0.875" fill="url(#paint1_linear_35_730)"/>
<path d="M29.1139 0.875H39.0897C40.1249 0.875 40.8739 1.51112 41.0725 2.42637C41.111 2.60487 41.1285 2.79388 41.1241 2.99075C41.1197 3.16575 41.097 3.34775 41.055 3.53325L36.3361 24.4702C36.0027 25.9324 34.5844 27.125 33.1677 27.125H23.0352C21.8496 27.125 21.0411 26.2911 21.0017 25.1641C20.9939 24.9427 21.0157 24.7109 21.07 24.4711L25.9507 3.53412C26.2815 2.06675 27.6964 0.875 29.1139 0.875Z" fill="url(#paint2_linear_35_730)"/>
<path d="M16.9435 8.85238C16.6591 8.68175 16.1516 8.73513 15.8042 8.9705C15.4577 9.20063 15.4105 9.527 15.694 9.69938C15.9731 9.86475 16.4832 9.81663 16.828 9.5795C17.1727 9.345 17.2244 9.02125 16.9435 8.85238ZM37.0195 9.954L35.9949 11.746L35.7647 9.625L34.6797 9.88225L35.077 13.3499L33.8389 15.3562C33.8056 15.4035 33.7759 15.4359 33.7347 15.4499C33.6892 15.4717 33.6315 15.4761 33.551 15.4761H33.516L33.25 16.296L33.9062 16.2969C34.37 16.2951 34.6972 16.0449 34.8617 15.75L38.5 9.625L37.0195 9.954ZM19.3874 14.875L19.0339 15.4884C18.9577 15.6223 18.8282 15.75 18.5412 15.75H18.3654L18.1186 16.5156H18.7031C19.3917 16.5156 19.7164 16.1385 19.7164 16.1385H21.5416L21.805 15.3221H20.272L20.517 14.8759L19.3874 14.875ZM9.11399 10.3994C8.94424 11.0556 8.81562 11.4844 8.51987 11.7863C8.31599 11.9945 8.00099 12.0934 7.71224 12.0925C7.28087 12.0925 6.91599 11.8204 6.93962 11.3724C6.94137 11.3391 6.94574 11.3041 6.95187 11.2683C7.16362 10.0896 8.08674 7 8.08674 7H6.36562L5.47312 10.5263C5.47312 10.5263 5.25437 11.3733 5.24999 11.7329C5.24649 12.0068 5.29112 12.2308 5.39349 12.4198C5.72249 13.0191 6.69549 13.125 7.25199 13.125C8.20399 13.125 8.76662 13.034 9.22687 12.754C9.96099 12.3078 10.1736 11.704 10.4002 10.8509C10.6557 9.89188 11.375 7 11.375 7H9.97937L9.11399 10.3994ZM11.9884 13.125L12.6052 10.6146C12.7391 10.5569 12.8704 10.5 12.9946 10.5C13.2904 10.5 13.3569 10.7459 13.342 10.8439C13.3297 10.9629 12.8257 13.125 12.8257 13.125H14.0542L14.4839 11.3155C14.6624 10.647 14.7525 10.3075 14.6387 10.031C14.5197 9.72213 14.2152 9.625 13.9335 9.625C13.7497 9.625 13.412 9.68888 13.1057 9.82975C12.9946 9.88313 12.8896 9.94525 12.7785 10.0065L12.8686 9.62325L11.5622 9.828L10.7187 13.125H11.9884ZM22.379 13.125L22.9959 10.6146C23.1297 10.5569 23.261 10.5 23.3852 10.5C23.681 10.5 23.7475 10.7459 23.7326 10.8439C23.7204 10.9629 23.2164 13.125 23.2164 13.125H24.4449L24.8745 11.3155C25.053 10.647 25.1431 10.3075 25.0294 10.031C24.9104 9.72213 24.6059 9.625 24.3241 9.625C24.1404 9.625 23.8026 9.68888 23.4964 9.82975C23.3852 9.88313 23.2802 9.94525 23.1691 10.0065L23.2592 9.62325L21.9529 9.828L21.1094 13.125H22.379ZM14.875 13.125H16.1446L16.8009 10.5L15.5006 10.6925L14.875 13.125ZM30.996 7.5425C30.6337 7.01488 29.8856 7.00438 29.0211 7H26.9727L25.375 13.125H26.7566L27.3385 10.9375H27.5957C28.4769 10.9375 29.3212 10.9253 30.0536 10.3968C30.5655 10.024 30.9575 9.52875 31.1281 8.85938C31.1719 8.69575 31.2069 8.50063 31.2121 8.3055C31.2182 8.04913 31.1395 7.74113 30.996 7.5425ZM29.5242 8.91625C29.4236 9.32488 29.1497 9.66875 28.805 9.83413C28.5215 9.97413 28.1741 9.954 27.8206 9.95313H27.6001L28.1531 7.875C28.2774 7.875 28.4856 7.875 28.6956 7.875C29.3519 7.875 29.5601 8.29238 29.5584 8.64063C29.5584 8.73075 29.547 8.8235 29.5242 8.91625ZM24.9112 18.375C24.9112 18.375 24.8456 18.5666 24.8246 18.6314C24.8071 18.6865 24.7371 18.8125 24.5385 18.8125H24.1719V18.375H23.1875V20.5625C23.1814 20.7226 23.3441 21 24.0607 21H24.8762L25.1265 20.2335L24.3915 20.2344C24.1727 20.2344 24.1771 20.1329 24.1745 19.9719C24.1719 19.7969 24.1719 19.4688 24.1719 19.4688H24.8666C25.5054 19.4688 25.6454 18.9385 25.6944 18.7801L25.7897 18.375H24.9112Z" fill="#FEFEFE"/>
<path d="M25.221 14.875C23.9067 14.875 23.6504 15.4612 23.6504 15.4612L23.8306 14.875H22.7719L21.0402 20.1976C21.0219 20.2589 20.9982 20.3551 21 20.4592C21.0052 20.706 21.1522 21 21.8435 21L22.4717 20.9991L22.7517 20.125C22.7517 20.125 22.4367 20.125 22.3274 20.125C22.19 20.125 22.218 20.0112 22.218 20.0112L22.8384 18.1282H24.3941C25.6804 18.1282 25.9192 17.3407 26.0347 16.982L26.7207 14.875C26.7207 14.875 25.6979 14.875 25.221 14.875ZM24.7607 17.5H23.0099L23.1901 16.9715H24.9445L24.7607 17.5ZM25.2192 16.2032C25.2192 16.2032 24.3337 16.1945 24.1911 16.2207C23.5637 16.3292 23.3004 16.6652 23.3004 16.6652L23.5961 15.75H25.3662L25.2192 16.2032ZM32.8186 9.82975C32.8186 9.82975 32.8099 9.86475 32.7941 9.92687C32.6594 9.78162 32.4362 9.625 32.0845 9.625C31.647 9.625 31.2646 9.78162 30.8157 10.1649C30.4211 10.5061 30.2234 10.9751 30.1061 11.424C30.0606 11.5902 30.0335 11.8536 30.0335 12.0312C30.0335 13.125 30.9802 13.125 31.2104 13.125C31.556 13.125 31.8316 12.9929 32.0547 12.8214C32.0267 12.929 31.9751 13.125 31.9751 13.125H33.2447L34.125 9.625L32.8186 9.82975ZM31.5857 12.3515C31.5306 12.3515 31.2025 12.3515 31.2104 11.9919C31.2139 11.8142 31.2559 11.6156 31.3197 11.3872C31.4685 10.8552 31.6689 10.3906 32.1947 10.3906C32.606 10.3906 32.5981 10.7205 32.4222 11.382C32.3715 11.5719 32.2289 11.9149 32.1177 12.082C31.9559 12.3252 31.7712 12.3515 31.5857 12.3515ZM20.797 10.0564C20.5371 9.73 20.0637 9.62587 19.5702 9.625C19.2736 9.625 18.5649 9.65212 17.9987 10.1316C17.5919 10.4781 17.395 10.9489 17.2716 11.3995C17.1474 11.8589 16.9951 12.6866 17.7931 12.9955C18.039 13.097 18.3969 13.125 18.6287 13.125C19.2194 13.1259 19.8292 12.9727 20.2982 12.5169C20.6596 12.1476 20.8355 11.5972 20.8976 11.3706C21.0997 10.6207 20.9685 10.2699 20.797 10.0564ZM18.7504 12.3506C18.6952 12.3506 18.3671 12.3506 18.375 11.991C18.3785 11.8134 18.4275 11.5789 18.4844 11.3864C18.6322 10.8859 18.8344 10.3897 19.3594 10.3897C19.7706 10.3897 19.7627 10.7196 19.5869 11.3811C19.5361 11.571 19.3935 11.914 19.2824 12.0811C19.1205 12.3252 18.9359 12.3515 18.7504 12.3506ZM18.2411 16.7256L17.9865 17.5H18.7267L18.5097 18.1729H17.7677L17.5 18.9927H18.2394L17.7704 20.4269C17.7074 20.6167 17.7047 20.9991 18.4161 20.9991H19.8397L20.125 20.125C20.125 20.125 19.3104 20.125 19.0916 20.125C18.8729 20.125 18.9315 19.9701 18.9315 19.9701L19.2535 18.9796H20.7812L21.0455 18.1737H19.5169L19.74 17.5H21.2389L21.4987 16.7256H18.2411ZM34.7375 17.4265L35 16.625H31.4676L31.2104 17.4265H32.27L32.0539 18.0766H30.9759L30.7457 18.7871H31.6925L30.8499 19.894C30.7825 19.9911 30.6399 20.125 30.4054 20.125H29.9801L30.0632 19.8721H29.6975L31.0441 15.75H31.5227L31.6732 15.2967C31.6732 15.2967 31.6732 15.6301 31.6732 15.7491C31.6732 16.1289 31.7826 16.2969 32.3916 16.2969H32.8099L33.075 15.4787H32.8799C32.7512 15.4814 32.69 15.4402 32.7005 15.358V14.875C32.7005 14.875 32.0014 14.875 31.6067 14.875C30.5786 14.875 29.9416 14.9231 29.6879 14.9905C29.3807 15.0692 28.9817 15.3029 28.9817 15.3029L29.1191 14.875H27.9825L26.3532 19.8817H26.1082L25.83 20.7287H28.3447L28.2564 21H29.3317L29.4192 20.7287H29.771L29.6791 21H30.5716C30.7982 21 30.9811 20.9492 31.1334 20.8644C31.2926 20.776 31.4177 20.6509 31.5245 20.5082L32.186 19.628L32.2866 20.5511C32.312 20.7191 32.3767 21 33.0671 21H33.5641L33.852 20.125H33.5274C33.2955 20.125 33.2456 19.9544 33.2325 19.8651L33.117 18.9691H32.5789L32.7976 18.7871H34.2877L34.5222 18.0766H33.1354L33.355 17.4265H34.7375ZM28.8435 15.75H29.9836L29.7404 16.4964C29.7404 16.4964 29.3361 16.5209 29.134 16.5664C28.7901 16.6451 28.504 16.7834 28.504 16.7834L28.8435 15.75ZM28.6379 19.8817H27.4951L27.7987 18.9507H28.9389L28.6379 19.8817ZM29.232 18.0442C29.232 18.0442 28.9292 18.0819 28.7297 18.1274C28.3806 18.228 27.9816 18.375 27.9816 18.375L28.3316 17.3092H29.4761L29.232 18.0442Z" fill="#FEFEFE"/>
<defs>
<linearGradient id="paint0_linear_35_730" x1="3.11809" y1="14" x2="22.9419" y2="14" gradientUnits="userSpaceOnUse">
<stop stop-color="#F44F5A"/>
<stop offset="0.443" stop-color="#EE3D4A"/>
<stop offset="1" stop-color="#E52030"/>
</linearGradient>
<linearGradient id="paint1_linear_35_730" x1="4.37235" y1="14" x2="27.0856" y2="14" gradientUnits="userSpaceOnUse">
<stop stop-color="#0077D2"/>
<stop offset="1" stop-color="#0B59A2"/>
</linearGradient>
<linearGradient id="paint2_linear_35_730" x1="0.795497" y1="14" x2="41.1252" y2="14" gradientUnits="userSpaceOnUse">
<stop stop-color="#37C6D0"/>
<stop offset="1" stop-color="#1A9BA1"/>
</linearGradient>
</defs>
</svg>
